# Converted from model.gltf; joint-local geometry, engine +Y forward.
v 0.07968891 0.26790786 -0.21875000
v -0.28961396 0.20278978 -0.21875000
v 0.12310094 0.02170599 -0.21875000
v -0.24620193 -0.04341209 -0.21875000
v -0.28961396 0.20278978 0.03125000
v 0.07968891 0.26790786 0.03125000
v -0.24620193 -0.04341209 0.03125000
v 0.12310094 0.02170599 0.03125000
v -0.28961396 0.20278978 0.03125000
v -0.28961396 0.20278978 -0.21875000
v 0.07968891 0.26790786 0.03125000
v 0.07968891 0.26790786 -0.21875000
v 0.12310094 0.02170599 0.03125000
v 0.12310094 0.02170599 -0.21875000
v -0.24620193 -0.04341209 0.03125000
v -0.24620193 -0.04341209 -0.21875000
v 0.07968891 0.26790786 0.03125000
v 0.07968891 0.26790786 -0.21875000
v 0.12310094 0.02170599 0.03125000
v 0.12310094 0.02170599 -0.21875000
v -0.28961396 0.20278978 -0.21875000
v -0.28961396 0.20278978 0.03125000
v -0.24620193 -0.04341209 -0.21875000
v -0.24620193 -0.04341209 0.03125000
v -0.22709477 0.15809035 -0.18750000
v -0.46552396 0.08291388 -0.18750000
v -0.17071241 -0.02073169 -0.18750000
v -0.40914166 -0.09590805 -0.18750000
v -0.46552396 0.08291388 -0.00000000
v -0.22709477 0.15809035 -0.00000000
v -0.40914166 -0.09590805 -0.00000000
v -0.17071241 -0.02073169 -0.00000000
v -0.46552396 0.08291388 -0.00000000
v -0.46552396 0.08291388 -0.18750000
v -0.22709477 0.15809035 -0.00000000
v -0.22709477 0.15809035 -0.18750000
v -0.17071241 -0.02073169 -0.00000000
v -0.17071241 -0.02073169 -0.18750000
v -0.40914166 -0.09590805 -0.00000000
v -0.40914166 -0.09590805 -0.18750000
v -0.22709477 0.15809035 -0.00000000
v -0.22709477 0.15809035 -0.18750000
v -0.17071241 -0.02073169 -0.00000000
v -0.17071241 -0.02073169 -0.18750000
v -0.46552396 0.08291388 -0.18750000
v -0.46552396 0.08291388 -0.00000000
v -0.40914166 -0.09590805 -0.18750000
v -0.40914166 -0.09590805 -0.00000000
v 0.00864178 0.26269281 0.00495347
v -0.04258591 0.24151671 -0.02391774
v 0.02869552 0.14896238 0.05278888
v -0.02253217 0.12778628 0.02391768
v -0.14570212 0.28643322 0.12610160
v -0.09447443 0.30760932 0.15497281
v -0.12564838 0.17270279 0.17393701
v -0.07442069 0.19387889 0.20280820
v -0.14570212 0.28643322 0.12610160
v -0.04258591 0.24151671 -0.02391774
v -0.09447443 0.30760932 0.15497281
v 0.00864178 0.26269281 0.00495347
v -0.07442069 0.19387889 0.20280820
v 0.02869552 0.14896238 0.05278888
v -0.12564838 0.17270279 0.17393701
v -0.02253217 0.12778628 0.02391768
v -0.09447443 0.30760932 0.15497281
v 0.00864178 0.26269281 0.00495347
v -0.07442069 0.19387889 0.20280820
v 0.02869552 0.14896238 0.05278888
v -0.04258591 0.24151671 -0.02391774
v -0.14570212 0.28643322 0.12610160
v -0.02253217 0.12778628 0.02391768
v -0.12564838 0.17270279 0.17393701
v -0.09447443 0.30760932 -0.34247279
v -0.14570212 0.28643322 -0.31360158
v -0.07442069 0.19387889 -0.39030820
v -0.12564838 0.17270279 -0.36143699
v -0.04258591 0.24151671 -0.16358227
v 0.00864178 0.26269281 -0.19245347
v -0.02253217 0.12778628 -0.21141768
v 0.02869552 0.14896238 -0.24028888
v -0.04258591 0.24151671 -0.16358227
v -0.14570212 0.28643322 -0.31360158
v 0.00864178 0.26269281 -0.19245347
v -0.09447443 0.30760932 -0.34247279
v 0.02869552 0.14896238 -0.24028888
v -0.07442069 0.19387889 -0.39030820
v -0.02253217 0.12778628 -0.21141768
v -0.12564838 0.17270279 -0.36143699
v 0.00864178 0.26269281 -0.19245347
v -0.09447443 0.30760932 -0.34247279
v 0.02869552 0.14896238 -0.24028888
v -0.07442069 0.19387889 -0.39030820
v -0.14570212 0.28643322 -0.31360158
v -0.04258591 0.24151671 -0.16358227
v -0.12564838 0.17270279 -0.36143699
v -0.02253217 0.12778628 -0.21141768
vt 0.39086914 0.09399414
vt 0.48413086 0.09399414
vt 0.39086914 0.15600586
vt 0.48413086 0.15600586
vt 0.54711914 0.09399414
vt 0.64038086 0.09399414
vt 0.54711914 0.15600586
vt 0.64038086 0.15600586
vt 0.54663086 0.09350586
vt 0.48461914 0.09350586
vt 0.54663086 0.00024414
vt 0.48461914 0.00024414
vt 0.60913086 0.00024414
vt 0.54711914 0.00024414
vt 0.60913086 0.09350586
vt 0.54711914 0.09350586
vt 0.64086914 0.09399414
vt 0.70288086 0.09399414
vt 0.64086914 0.15600586
vt 0.70288086 0.15600586
vt 0.48461914 0.09399414
vt 0.54663086 0.09399414
vt 0.48461914 0.15600586
vt 0.54663086 0.15600586
vt 0.64086914 0.15649414
vt 0.70288086 0.15649414
vt 0.64086914 0.20288086
vt 0.70288086 0.20288086
vt 0.75024414 0.15649414
vt 0.81225586 0.15649414
vt 0.75024414 0.20288086
vt 0.81225586 0.20288086
vt 0.74975586 0.15600586
vt 0.70336914 0.15600586
vt 0.74975586 0.09399414
vt 0.70336914 0.09399414
vt 0.79663086 0.09399414
vt 0.75024414 0.09399414
vt 0.79663086 0.15600586
vt 0.75024414 0.15600586
vt 0.81274414 0.15649414
vt 0.85913086 0.15649414
vt 0.81274414 0.20288086
vt 0.85913086 0.20288086
vt 0.70336914 0.15649414
vt 0.74975586 0.15649414
vt 0.70336914 0.20288086
vt 0.74975586 0.20288086
vt 0.17211914 0.53149414
vt 0.18725586 0.53149414
vt 0.17211914 0.56225586
vt 0.18725586 0.56225586
vt 0.23461914 0.53149414
vt 0.24975586 0.53149414
vt 0.23461914 0.56225586
vt 0.24975586 0.56225586
vt 0.23413086 0.53100586
vt 0.18774414 0.53100586
vt 0.23413086 0.51586914
vt 0.18774414 0.51586914
vt 0.28100586 0.51586914
vt 0.23461914 0.51586914
vt 0.28100586 0.53100586
vt 0.23461914 0.53100586
vt 0.25024414 0.53149414
vt 0.29663086 0.53149414
vt 0.25024414 0.56225586
vt 0.29663086 0.56225586
vt 0.18774414 0.53149414
vt 0.23413086 0.53149414
vt 0.18774414 0.56225586
vt 0.23413086 0.56225586
vt 0.46899414 0.35961914
vt 0.48413086 0.35961914
vt 0.46899414 0.39038086
vt 0.48413086 0.39038086
vt 0.53149414 0.35961914
vt 0.54663086 0.35961914
vt 0.53149414 0.39038086
vt 0.54663086 0.39038086
vt 0.53100586 0.35913086
vt 0.48461914 0.35913086
vt 0.53100586 0.34399414
vt 0.48461914 0.34399414
vt 0.57788086 0.34399414
vt 0.53149414 0.34399414
vt 0.57788086 0.35913086
vt 0.53149414 0.35913086
vt 0.54711914 0.35961914
vt 0.59350586 0.35961914
vt 0.54711914 0.39038086
vt 0.59350586 0.39038086
vt 0.48461914 0.35961914
vt 0.53100586 0.35961914
vt 0.48461914 0.39038086
vt 0.53100586 0.39038086
vn 0.00000000 0.00000000 -1.00000000
vn 0.00000000 0.00000000 -1.00000000
vn 0.00000000 0.00000000 -1.00000000
vn 0.00000000 0.00000000 -1.00000000
vn 0.00000000 0.00000000 1.00000000
vn 0.00000000 0.00000000 1.00000000
vn 0.00000000 0.00000000 1.00000000
vn 0.00000000 0.00000000 1.00000000
vn -0.17364819 0.98480779 -0.00000000
vn -0.17364819 0.98480779 -0.00000000
vn -0.17364819 0.98480779 -0.00000000
vn -0.17364819 0.98480779 -0.00000000
vn 0.17364819 -0.98480779 -0.00000000
vn 0.17364819 -0.98480779 -0.00000000
vn 0.17364819 -0.98480779 -0.00000000
vn 0.17364819 -0.98480779 -0.00000000
vn 0.98480779 0.17364819 -0.00000000
vn 0.98480779 0.17364819 -0.00000000
vn 0.98480779 0.17364819 -0.00000000
vn 0.98480779 0.17364819 -0.00000000
vn -0.98480779 -0.17364819 -0.00000000
vn -0.98480779 -0.17364819 -0.00000000
vn -0.98480779 -0.17364819 -0.00000000
vn -0.98480779 -0.17364819 -0.00000000
vn 0.00000000 0.00000000 -1.00000000
vn 0.00000000 0.00000000 -1.00000000
vn 0.00000000 0.00000000 -1.00000000
vn 0.00000000 0.00000000 -1.00000000
vn 0.00000000 0.00000000 1.00000000
vn 0.00000000 0.00000000 1.00000000
vn 0.00000000 0.00000000 1.00000000
vn 0.00000000 0.00000000 1.00000000
vn -0.30070579 0.95371699 -0.00000000
vn -0.30070579 0.95371699 -0.00000000
vn -0.30070579 0.95371699 -0.00000000
vn -0.30070579 0.95371699 -0.00000000
vn 0.30070579 -0.95371699 -0.00000000
vn 0.30070579 -0.95371699 -0.00000000
vn 0.30070579 -0.95371699 -0.00000000
vn 0.30070579 -0.95371699 -0.00000000
vn 0.95371699 0.30070579 -0.00000000
vn 0.95371699 0.30070579 -0.00000000
vn 0.95371699 0.30070579 -0.00000000
vn 0.95371699 0.30070579 -0.00000000
vn -0.95371699 -0.30070579 -0.00000000
vn -0.95371699 -0.30070579 -0.00000000
vn -0.95371699 -0.30070579 -0.00000000
vn -0.95371699 -0.30070579 -0.00000000
vn 0.54995322 -0.23955455 -0.80010307
vn 0.54995322 -0.23955455 -0.80010307
vn 0.54995322 -0.23955455 -0.80010307
vn 0.54995322 -0.23955455 -0.80010307
vn -0.54995322 0.23955455 0.80010307
vn -0.54995322 0.23955455 0.80010307
vn -0.54995322 0.23955455 0.80010307
vn -0.54995322 0.23955455 0.80010307
vn -0.16042998 0.90984368 -0.38268340
vn -0.16042998 0.90984368 -0.38268340
vn -0.16042998 0.90984368 -0.38268340
vn -0.16042998 0.90984368 -0.38268340
vn 0.16042998 -0.90984368 0.38268340
vn 0.16042998 -0.90984368 0.38268340
vn 0.16042998 -0.90984368 0.38268340
vn 0.16042998 -0.90984368 0.38268340
vn 0.81964242 0.33881855 0.46193978
vn 0.81964242 0.33881855 0.46193978
vn 0.81964242 0.33881855 0.46193978
vn 0.81964242 0.33881855 0.46193978
vn -0.81964242 -0.33881855 -0.46193978
vn -0.81964242 -0.33881855 -0.46193978
vn -0.81964242 -0.33881855 -0.46193978
vn -0.81964242 -0.33881855 -0.46193978
vn -0.54995322 0.23955455 -0.80010307
vn -0.54995322 0.23955455 -0.80010307
vn -0.54995322 0.23955455 -0.80010307
vn -0.54995322 0.23955455 -0.80010307
vn 0.54995322 -0.23955455 0.80010307
vn 0.54995322 -0.23955455 0.80010307
vn 0.54995322 -0.23955455 0.80010307
vn 0.54995322 -0.23955455 0.80010307
vn -0.16042998 0.90984368 0.38268340
vn -0.16042998 0.90984368 0.38268340
vn -0.16042998 0.90984368 0.38268340
vn -0.16042998 0.90984368 0.38268340
vn 0.16042998 -0.90984368 -0.38268340
vn 0.16042998 -0.90984368 -0.38268340
vn 0.16042998 -0.90984368 -0.38268340
vn 0.16042998 -0.90984368 -0.38268340
vn 0.81964242 0.33881855 -0.46193978
vn 0.81964242 0.33881855 -0.46193978
vn 0.81964242 0.33881855 -0.46193978
vn 0.81964242 0.33881855 -0.46193978
vn -0.81964242 -0.33881855 0.46193978
vn -0.81964242 -0.33881855 0.46193978
vn -0.81964242 -0.33881855 0.46193978
vn -0.81964242 -0.33881855 0.46193978
g doe_head
f 1/1/1 3/3/3 2/2/2
f 3/3/3 4/4/4 2/2/2
f 5/5/5 7/7/7 6/6/6
f 7/7/7 8/8/8 6/6/6
f 9/9/9 11/11/11 10/10/10
f 11/11/11 12/12/12 10/10/10
f 13/13/13 15/15/15 14/14/14
f 15/15/15 16/16/16 14/14/14
f 17/17/17 19/19/19 18/18/18
f 19/19/19 20/20/20 18/18/18
f 21/21/21 23/23/23 22/22/22
f 23/23/23 24/24/24 22/22/22
f 25/25/25 27/27/27 26/26/26
f 27/27/27 28/28/28 26/26/26
f 29/29/29 31/31/31 30/30/30
f 31/31/31 32/32/32 30/30/30
f 33/33/33 35/35/35 34/34/34
f 35/35/35 36/36/36 34/34/34
f 37/37/37 39/39/39 38/38/38
f 39/39/39 40/40/40 38/38/38
f 41/41/41 43/43/43 42/42/42
f 43/43/43 44/44/44 42/42/42
f 45/45/45 47/47/47 46/46/46
f 47/47/47 48/48/48 46/46/46
f 49/49/49 51/51/51 50/50/50
f 51/51/51 52/52/52 50/50/50
f 53/53/53 55/55/55 54/54/54
f 55/55/55 56/56/56 54/54/54
f 57/57/57 59/59/59 58/58/58
f 59/59/59 60/60/60 58/58/58
f 61/61/61 63/63/63 62/62/62
f 63/63/63 64/64/64 62/62/62
f 65/65/65 67/67/67 66/66/66
f 67/67/67 68/68/68 66/66/66
f 69/69/69 71/71/71 70/70/70
f 71/71/71 72/72/72 70/70/70
f 73/73/73 75/75/75 74/74/74
f 75/75/75 76/76/76 74/74/74
f 77/77/77 79/79/79 78/78/78
f 79/79/79 80/80/80 78/78/78
f 81/81/81 83/83/83 82/82/82
f 83/83/83 84/84/84 82/82/82
f 85/85/85 87/87/87 86/86/86
f 87/87/87 88/88/88 86/86/86
f 89/89/89 91/91/91 90/90/90
f 91/91/91 92/92/92 90/90/90
f 93/93/93 95/95/95 94/94/94
f 95/95/95 96/96/96 94/94/94
