# Wavefront OBJ file
# Exported by Misfit Model 3D 1.3.8
# Fri Aug 14 17:55:39 2026

# 8 Vertices
v 0.9 -0.0 -0.9
v 0.9 -0.0 0.9
v -0.9 -0.0 0.9
v 0.9 1.26 -0.9
v 0.899999 1.26 0.9
v -0.9 1.26 0.9
v -0.9 -0.0 -0.9
v -0.900001 1.26 -0.900001

# 36 Texture Coordinates
vt 0.65579 0.484857
vt 0.43796 0.484898
vt 0.43796 0.702605
vt 0.65579 0.484857
vt 0.43796 0.702605
vt 0.65579 0.702564
vt 0.436693 0.485184
vt 0.436693 0.702321
vt 0.21956 0.702321
vt 0.436693 0.485184
vt 0.21956 0.702321
vt 0.21956 0.485185
vt 0.436732 0.328677
vt 0.436732 0.483825
vt 0.219517 0.483825
vt 0.436732 0.328677
vt 0.219517 0.483825
vt 0.219517 0.328677
vt 0.656709 0.483673
vt 0.656709 0.328568
vt 0.87445 0.328568
vt 0.656709 0.483673
vt 0.87445 0.328568
vt 0.87445 0.483673
vt 0.000875 0.483891
vt 0.000875 0.328604
vt 0.218079 0.328604
vt 0.000875 0.483891
vt 0.218079 0.328604
vt 0.21808 0.483891
vt 0.438 0.484023
vt 0.438 0.328586
vt 0.655755 0.328586
vt 0.438 0.484023
vt 0.655755 0.328586
vt 0.655756 0.484023

# 36 Vertex Normals
vn 0.0 -1.0 0.0
vn 0.0 -1.0 0.0
vn 0.0 -1.0 0.0
vn 0.0 -1.0 0.0
vn 0.0 -1.0 0.0
vn 0.0 -1.0 0.0
vn -0.0 1.0 0.0
vn -0.0 1.0 0.0
vn -0.0 1.0 0.0
vn -0.0 1.0 0.0
vn -0.0 1.0 0.0
vn -0.0 1.0 0.0
vn 1.0 0.0 0.0
vn 1.0 0.0 0.000001
vn 1.0 0.0 0.0
vn 1.0 0.0 0.0
vn 1.0 0.0 0.0
vn 1.0 0.000001 0.0
vn -1.0 -0.0 0.0
vn -1.0 -0.000001 -0.0
vn -1.0 -0.0 0.0
vn -1.0 -0.0 0.0
vn -1.0 -0.0 0.0
vn -1.0 -0.0 0.000001
vn 0.0 0.0 1.0
vn 0.0 0.0 1.0
vn 0.0 0.0 1.0
vn 0.0 0.0 1.0
vn 0.0 0.0 1.0
vn 0.0 0.0 1.0
vn 0.0 -0.0 -1.0
vn 0.0 0.0 -1.0
vn 0.0 -0.0 -1.0
vn 0.0 -0.0 -1.0
vn 0.0 -0.0 -1.0
vn 0.000001 -0.000001 -1.0

# 12 Ungrouped triangles

o ungrouped
g ungrouped

f 1/1/1 2/2/2 3/3/3
f 1/4/4 3/5/5 7/6/6
f 4/7/7 8/8/8 6/9/9
f 4/10/10 6/11/11 5/12/12
f 1/13/13 4/14/14 5/15/15
f 1/16/16 5/17/17 2/18/18
f 8/19/19 7/20/20 3/21/21
f 8/22/22 3/23/23 6/24/24
f 6/25/25 3/26/26 2/27/27
f 6/28/28 2/29/29 5/30/30
f 4/31/31 1/32/32 7/33/33
f 4/34/34 7/35/35 8/36/36
