# Wavefront OBJ file
# Exported by Misfit Model 3D 1.3.8
# Fri Aug 14 17:55:26 2026

# 16 Vertices
v 1.8 0.0 -0.9
v 1.8 0.0 0.9
v -0.000001 0.0 0.9
v 0.0 0.0 -0.9
v 1.8 0.625503 -0.899999
v 1.799999 0.625503 0.900001
v -0.000001 0.625503 0.9
v 0.0 0.625503 -0.9
v 1.927303 0.250463 0.124811
v 1.927303 0.250463 -0.129795
v 1.797336 0.250463 0.124811
v 1.797336 -0.251596 0.124811
v 1.797336 0.250463 -0.129795
v 1.927303 -0.251596 0.124811
v 1.927303 -0.251596 -0.129795
v 1.797336 -0.251596 -0.129795

# 72 Texture Coordinates
vt 0.655773 0.781958
vt 0.437715 0.781958
vt 0.437715 0.999382
vt 0.655773 0.781958
vt 0.437715 0.999382
vt 0.655773 0.999382
vt 0.437285 0.781258
vt 0.437285 0.999501
vt 0.219298 0.999501
vt 0.437285 0.781258
vt 0.219298 0.999501
vt 0.219297 0.781258
vt 0.437103 0.703272
vt 0.437103 0.781106
vt 0.219151 0.781106
vt 0.437103 0.703272
vt 0.219151 0.781106
vt 0.219151 0.703272
vt 0.218143 0.703601
vt 0.218143 0.780762
vt 0.000483 0.780762
vt 0.218143 0.703601
vt 0.000483 0.780762
vt 0.000483 0.703601
vt 0.874339 0.703584
vt 0.874339 0.780758
vt 0.656916 0.780757
vt 0.874339 0.703584
vt 0.656916 0.780757
vt 0.656916 0.703583
vt 0.437748 0.781059
vt 0.437748 0.703321
vt 0.655853 0.703321
vt 0.437748 0.781059
vt 0.655853 0.703321
vt 0.655853 0.781059
vt 0.046581 0.922446
vt 0.046581 0.983806
vt 0.015902 0.983806
vt 0.046581 0.922446
vt 0.015902 0.983806
vt 0.015902 0.922446
vt 0.062335 0.922538
vt 0.062335 0.983713
vt 0.047042 0.983713
vt 0.062335 0.922538
vt 0.047042 0.983713
vt 0.047042 0.922538
vt 0.015221 0.922538
vt 0.000399 0.922538
vt 0.000399 0.983713
vt 0.015221 0.922538
vt 0.000399 0.983713
vt 0.015221 0.983713
vt 0.077602 0.984558
vt 0.047394 0.984558
vt 0.047394 0.999802
vt 0.077602 0.984558
vt 0.047394 0.999802
vt 0.077602 0.999802
vt 0.046352 0.984412
vt 0.046352 0.999947
vt 0.016144 0.999947
vt 0.046352 0.984412
vt 0.016144 0.999947
vt 0.016144 0.984412
vt 0.093467 0.922446
vt 0.093467 0.983806
vt 0.062788 0.983806
vt 0.093467 0.922446
vt 0.062788 0.983806
vt 0.062788 0.922446

# 72 Vertex Normals
vn -0.0 -1.0 0.0
vn -0.0 -1.0 0.0
vn -0.0 -1.0 0.0
vn -0.0 -1.0 0.0
vn -0.0 -1.0 0.0
vn -0.0 -1.0 0.0
vn 0.0 1.0 0.0
vn 0.0 1.0 0.0
vn 0.0 1.0 0.0
vn 0.0 1.0 0.0
vn 0.0 1.0 0.0
vn -0.0 1.0 0.0
vn 1.0 0.000001 0.0
vn 1.0 -0.0 0.000001
vn 1.0 0.000001 0.0
vn 1.0 0.000001 0.0
vn 1.0 0.000001 0.0
vn 1.0 0.000002 0.0
vn -0.0 -0.000001 1.0
vn -0.000001 -0.000002 1.0
vn -0.0 -0.000001 1.0
vn -0.0 -0.000001 1.0
vn -0.0 -0.000001 1.0
vn 0.0 0.0 1.0
vn -1.0 0.0 -0.000001
vn -1.0 0.0 -0.000001
vn -1.0 0.0 -0.000001
vn -1.0 0.0 -0.000001
vn -1.0 0.0 -0.000001
vn -1.0 0.0 -0.000001
vn 0.0 0.000001 -1.0
vn 0.0 0.000002 -1.0
vn 0.0 0.000001 -1.0
vn 0.0 0.000001 -1.0
vn 0.0 0.000001 -1.0
vn 0.000001 0.0 -1.0
vn 1.0 0.0 -0.0
vn 1.0 0.0 -0.0
vn 1.0 0.0 -0.0
vn 1.0 0.0 -0.0
vn 1.0 0.0 -0.0
vn 1.0 0.0 -0.0
vn 0.0 -0.0 -1.0
vn 0.0 0.0 -1.0
vn 0.0 -0.0 -1.0
vn 0.0 -0.0 -1.0
vn 0.0 -0.0 -1.0
vn 0.0 -0.0 -1.0
vn 0.0 0.0 1.0
vn 0.0 0.0 1.0
vn 0.0 0.0 1.0
vn 0.0 0.0 1.0
vn 0.0 0.0 1.0
vn 0.0 0.0 1.0
vn -0.0 -1.0 0.0
vn -0.0 -1.0 0.0
vn -0.0 -1.0 0.0
vn -0.0 -1.0 0.0
vn -0.0 -1.0 0.0
vn -0.0 -1.0 0.0
vn 0.0 1.0 0.0
vn 0.0 1.0 0.0
vn 0.0 1.0 0.0
vn 0.0 1.0 0.0
vn 0.0 1.0 0.0
vn -0.0 1.0 0.0
vn -1.0 0.0 0.0
vn -1.0 0.0 0.0
vn -1.0 0.0 0.0
vn -1.0 0.0 0.0
vn -1.0 0.0 0.0
vn -1.0 0.0 0.0

# 24 Ungrouped triangles

o ungrouped
g ungrouped

f 1/1/1 2/2/2 3/3/3
f 1/4/4 3/5/5 4/6/6
f 5/7/7 8/8/8 7/9/9
f 5/10/10 7/11/11 6/12/12
f 1/13/13 5/14/14 6/15/15
f 1/16/16 6/17/17 2/18/18
f 2/19/19 6/20/20 7/21/21
f 2/22/22 7/23/23 3/24/24
f 3/25/25 7/26/26 8/27/27
f 3/28/28 8/29/29 4/30/30
f 5/31/31 1/32/32 4/33/33
f 5/34/34 4/35/35 8/36/36
f 15/37/37 10/38/38 9/39/39
f 15/40/40 9/41/41 14/42/42
f 16/43/43 13/44/44 10/45/45
f 16/46/46 10/47/47 15/48/48
f 12/49/49 14/50/50 9/51/51
f 12/52/52 9/53/53 11/54/54
f 15/55/55 14/56/56 12/57/57
f 15/58/58 12/59/59 16/60/60
f 10/61/61 13/62/62 11/63/63
f 10/64/64 11/65/65 9/66/66
f 12/67/67 11/68/68 13/69/69
f 12/70/70 13/71/71 16/72/72
