# Converted from model.gltf in neutral pose; origin at the humanoid joint.
v 0.06250000 0.06250000 -0.06250000
v -0.06250000 0.06250000 -0.06250000
v 0.06250000 -0.68750000 -0.06250000
v -0.06250000 -0.68750000 -0.06250000
v -0.06250000 0.06250000 0.06250000
v 0.06250000 0.06250000 0.06250000
v -0.06250000 -0.68750000 0.06250000
v 0.06250000 -0.68750000 0.06250000
v -0.06250000 0.06250000 0.06250000
v -0.06250000 0.06250000 -0.06250000
v 0.06250000 0.06250000 0.06250000
v 0.06250000 0.06250000 -0.06250000
v 0.06250000 -0.68750000 0.06250000
v 0.06250000 -0.68750000 -0.06250000
v -0.06250000 -0.68750000 0.06250000
v -0.06250000 -0.68750000 -0.06250000
v 0.06250000 0.06250000 0.06250000
v 0.06250000 0.06250000 -0.06250000
v 0.06250000 -0.68750000 0.06250000
v 0.06250000 -0.68750000 -0.06250000
v -0.06250000 0.06250000 -0.06250000
v -0.06250000 0.06250000 0.06250000
v -0.06250000 -0.68750000 -0.06250000
v -0.06250000 -0.68750000 0.06250000
vt 0.00024414 0.53149414
vt 0.03100586 0.53149414
vt 0.00024414 0.71850586
vt 0.03100586 0.71850586
vt 0.06274414 0.53149414
vt 0.09350586 0.53149414
vt 0.06274414 0.71850586
vt 0.09350586 0.71850586
vt 0.06225586 0.53100586
vt 0.03149414 0.53100586
vt 0.06225586 0.50024414
vt 0.03149414 0.50024414
vt 0.09350586 0.50024414
vt 0.06274414 0.50024414
vt 0.09350586 0.53100586
vt 0.06274414 0.53100586
vt 0.09399414 0.53149414
vt 0.12475586 0.53149414
vt 0.09399414 0.71850586
vt 0.12475586 0.71850586
vt 0.03149414 0.53149414
vt 0.06225586 0.53149414
vt 0.03149414 0.71850586
vt 0.06225586 0.71850586
vn 0.00000000 0.00000000 -1.00000000
vn 0.00000000 0.00000000 -1.00000000
vn 0.00000000 0.00000000 -1.00000000
vn 0.00000000 0.00000000 -1.00000000
vn 0.00000000 0.00000000 1.00000000
vn 0.00000000 0.00000000 1.00000000
vn 0.00000000 0.00000000 1.00000000
vn 0.00000000 0.00000000 1.00000000
vn 0.00000000 1.00000000 -0.00000000
vn 0.00000000 1.00000000 -0.00000000
vn 0.00000000 1.00000000 -0.00000000
vn 0.00000000 1.00000000 -0.00000000
vn 0.00000000 -1.00000000 -0.00000000
vn 0.00000000 -1.00000000 -0.00000000
vn 0.00000000 -1.00000000 -0.00000000
vn 0.00000000 -1.00000000 -0.00000000
vn 1.00000000 0.00000000 -0.00000000
vn 1.00000000 0.00000000 -0.00000000
vn 1.00000000 0.00000000 -0.00000000
vn 1.00000000 0.00000000 -0.00000000
vn -1.00000000 0.00000000 -0.00000000
vn -1.00000000 0.00000000 -0.00000000
vn -1.00000000 0.00000000 -0.00000000
vn -1.00000000 0.00000000 -0.00000000
g mossy_skeleton_arm_right
f 1/1/1 3/3/3 2/2/2
f 3/3/3 4/4/4 2/2/2
f 5/5/5 7/7/7 6/6/6
f 7/7/7 8/8/8 6/6/6
f 9/9/9 11/11/11 10/10/10
f 11/11/11 12/12/12 10/10/10
f 13/13/13 15/15/15 14/14/14
f 15/15/15 16/16/16 14/14/14
f 17/17/17 19/19/19 18/18/18
f 19/19/19 20/20/20 18/18/18
f 21/21/21 23/23/23 22/22/22
f 23/23/23 24/24/24 22/22/22
