# Converted from model.gltf; joint-local geometry, engine +Y forward.
v 0.07968891 0.26790786 -0.21875000
v -0.28961396 0.20278978 -0.21875000
v 0.12310094 0.02170599 -0.21875000
v -0.24620193 -0.04341209 -0.21875000
v -0.28961396 0.20278978 0.03125000
v 0.07968891 0.26790786 0.03125000
v -0.24620193 -0.04341209 0.03125000
v 0.12310094 0.02170599 0.03125000
v -0.28961396 0.20278978 0.03125000
v -0.28961396 0.20278978 -0.21875000
v 0.07968891 0.26790786 0.03125000
v 0.07968891 0.26790786 -0.21875000
v 0.12310094 0.02170599 0.03125000
v 0.12310094 0.02170599 -0.21875000
v -0.24620193 -0.04341209 0.03125000
v -0.24620193 -0.04341209 -0.21875000
v 0.07968891 0.26790786 0.03125000
v 0.07968891 0.26790786 -0.21875000
v 0.12310094 0.02170599 0.03125000
v 0.12310094 0.02170599 -0.21875000
v -0.28961396 0.20278978 -0.21875000
v -0.28961396 0.20278978 0.03125000
v -0.24620193 -0.04341209 -0.21875000
v -0.24620193 -0.04341209 0.03125000
v -0.22709477 0.15809035 -0.18750000
v -0.46552396 0.08291388 -0.18750000
v -0.17071241 -0.02073169 -0.18750000
v -0.40914166 -0.09590805 -0.18750000
v -0.46552396 0.08291388 -0.00000000
v -0.22709477 0.15809035 -0.00000000
v -0.40914166 -0.09590805 -0.00000000
v -0.17071241 -0.02073169 -0.00000000
v -0.46552396 0.08291388 -0.00000000
v -0.46552396 0.08291388 -0.18750000
v -0.22709477 0.15809035 -0.00000000
v -0.22709477 0.15809035 -0.18750000
v -0.17071241 -0.02073169 -0.00000000
v -0.17071241 -0.02073169 -0.18750000
v -0.40914166 -0.09590805 -0.00000000
v -0.40914166 -0.09590805 -0.18750000
v -0.22709477 0.15809035 -0.00000000
v -0.22709477 0.15809035 -0.18750000
v -0.17071241 -0.02073169 -0.00000000
v -0.17071241 -0.02073169 -0.18750000
v -0.46552396 0.08291388 -0.18750000
v -0.46552396 0.08291388 -0.00000000
v -0.40914166 -0.09590805 -0.18750000
v -0.40914166 -0.09590805 -0.00000000
v 0.00864178 0.26269281 0.00495347
v -0.04258591 0.24151671 -0.02391774
v 0.02869552 0.14896238 0.05278888
v -0.02253217 0.12778628 0.02391768
v -0.14570212 0.28643322 0.12610160
v -0.09447443 0.30760932 0.15497281
v -0.12564838 0.17270279 0.17393701
v -0.07442069 0.19387889 0.20280820
v -0.14570212 0.28643322 0.12610160
v -0.04258591 0.24151671 -0.02391774
v -0.09447443 0.30760932 0.15497281
v 0.00864178 0.26269281 0.00495347
v -0.07442069 0.19387889 0.20280820
v 0.02869552 0.14896238 0.05278888
v -0.12564838 0.17270279 0.17393701
v -0.02253217 0.12778628 0.02391768
v -0.09447443 0.30760932 0.15497281
v 0.00864178 0.26269281 0.00495347
v -0.07442069 0.19387889 0.20280820
v 0.02869552 0.14896238 0.05278888
v -0.04258591 0.24151671 -0.02391774
v -0.14570212 0.28643322 0.12610160
v -0.02253217 0.12778628 0.02391768
v -0.12564838 0.17270279 0.17393701
v -0.09447443 0.30760932 -0.34247279
v -0.14570212 0.28643322 -0.31360158
v -0.07442069 0.19387889 -0.39030820
v -0.12564838 0.17270279 -0.36143699
v -0.04258591 0.24151671 -0.16358227
v 0.00864178 0.26269281 -0.19245347
v -0.02253217 0.12778628 -0.21141768
v 0.02869552 0.14896238 -0.24028888
v -0.04258591 0.24151671 -0.16358227
v -0.14570212 0.28643322 -0.31360158
v 0.00864178 0.26269281 -0.19245347
v -0.09447443 0.30760932 -0.34247279
v 0.02869552 0.14896238 -0.24028888
v -0.07442069 0.19387889 -0.39030820
v -0.02253217 0.12778628 -0.21141768
v -0.12564838 0.17270279 -0.36143699
v 0.00864178 0.26269281 -0.19245347
v -0.09447443 0.30760932 -0.34247279
v 0.02869552 0.14896238 -0.24028888
v -0.07442069 0.19387889 -0.39030820
v -0.14570212 0.28643322 -0.31360158
v -0.04258591 0.24151671 -0.16358227
v -0.12564838 0.17270279 -0.36143699
v -0.02253217 0.12778628 -0.21141768
v 0.24176180 0.67349029 0.05198239
v 0.19024986 0.70051837 0.07483529
v -0.03386825 0.29323304 -0.11957659
v -0.08538020 0.32026112 -0.09672369
v 0.23078048 0.54915559 0.34521067
v 0.28229246 0.52212751 0.32235777
v -0.04484951 0.16889834 0.17365168
v 0.00666237 0.14187026 0.15079878
v 0.23078048 0.54915559 0.34521067
v 0.19024986 0.70051837 0.07483529
v 0.28229246 0.52212751 0.32235777
v 0.24176180 0.67349029 0.05198239
v 0.00666237 0.14187026 0.15079878
v -0.03386825 0.29323304 -0.11957659
v -0.04484951 0.16889834 0.17365168
v -0.08538020 0.32026112 -0.09672369
v 0.28229246 0.52212751 0.32235777
v 0.24176180 0.67349029 0.05198239
v 0.00666237 0.14187026 0.15079878
v -0.03386825 0.29323304 -0.11957659
v 0.19024986 0.70051837 0.07483529
v 0.23078048 0.54915559 0.34521067
v -0.08538020 0.32026112 -0.09672369
v -0.04484951 0.16889834 0.17365168
v 0.28623098 0.50325346 -0.49538177
v 0.23354602 0.52632773 -0.51983833
v 0.02248669 0.14818859 -0.26221263
v -0.03019828 0.17126286 -0.28666919
v 0.20051157 0.71367550 -0.27191538
v 0.25319651 0.69060135 -0.24745886
v -0.06323272 0.35861063 -0.03874625
v -0.01054776 0.33553648 -0.01428972
v 0.20051157 0.71367550 -0.27191538
v 0.23354602 0.52632773 -0.51983833
v 0.25319651 0.69060135 -0.24745886
v 0.28623098 0.50325346 -0.49538177
v -0.01054776 0.33553648 -0.01428972
v 0.02248669 0.14818859 -0.26221263
v -0.06323272 0.35861063 -0.03874625
v -0.03019828 0.17126286 -0.28666919
v 0.25319651 0.69060135 -0.24745886
v 0.28623098 0.50325346 -0.49538177
v -0.01054776 0.33553648 -0.01428972
v 0.02248669 0.14818859 -0.26221263
v 0.23354602 0.52632773 -0.51983833
v 0.20051157 0.71367550 -0.27191538
v -0.03019828 0.17126286 -0.28666919
v -0.06323272 0.35861063 -0.03874625
vt 0.39086914 0.09399414
vt 0.48413086 0.09399414
vt 0.39086914 0.15600586
vt 0.48413086 0.15600586
vt 0.54711914 0.09399414
vt 0.64038086 0.09399414
vt 0.54711914 0.15600586
vt 0.64038086 0.15600586
vt 0.54663086 0.09350586
vt 0.48461914 0.09350586
vt 0.54663086 0.00024414
vt 0.48461914 0.00024414
vt 0.60913086 0.00024414
vt 0.54711914 0.00024414
vt 0.60913086 0.09350586
vt 0.54711914 0.09350586
vt 0.64086914 0.09399414
vt 0.70288086 0.09399414
vt 0.64086914 0.15600586
vt 0.70288086 0.15600586
vt 0.48461914 0.09399414
vt 0.54663086 0.09399414
vt 0.48461914 0.15600586
vt 0.54663086 0.15600586
vt 0.64086914 0.15649414
vt 0.70288086 0.15649414
vt 0.64086914 0.20288086
vt 0.70288086 0.20288086
vt 0.75024414 0.15649414
vt 0.81225586 0.15649414
vt 0.75024414 0.20288086
vt 0.81225586 0.20288086
vt 0.74975586 0.15600586
vt 0.70336914 0.15600586
vt 0.74975586 0.09399414
vt 0.70336914 0.09399414
vt 0.79663086 0.09399414
vt 0.75024414 0.09399414
vt 0.79663086 0.15600586
vt 0.75024414 0.15600586
vt 0.81274414 0.15649414
vt 0.85913086 0.15649414
vt 0.81274414 0.20288086
vt 0.85913086 0.20288086
vt 0.70336914 0.15649414
vt 0.74975586 0.15649414
vt 0.70336914 0.20288086
vt 0.74975586 0.20288086
vt 0.17211914 0.53149414
vt 0.18725586 0.53149414
vt 0.17211914 0.56225586
vt 0.18725586 0.56225586
vt 0.23461914 0.53149414
vt 0.24975586 0.53149414
vt 0.23461914 0.56225586
vt 0.24975586 0.56225586
vt 0.23413086 0.53100586
vt 0.18774414 0.53100586
vt 0.23413086 0.51586914
vt 0.18774414 0.51586914
vt 0.28100586 0.51586914
vt 0.23461914 0.51586914
vt 0.28100586 0.53100586
vt 0.23461914 0.53100586
vt 0.25024414 0.53149414
vt 0.29663086 0.53149414
vt 0.25024414 0.56225586
vt 0.29663086 0.56225586
vt 0.18774414 0.53149414
vt 0.23413086 0.53149414
vt 0.18774414 0.56225586
vt 0.23413086 0.56225586
vt 0.46899414 0.35961914
vt 0.48413086 0.35961914
vt 0.46899414 0.39038086
vt 0.48413086 0.39038086
vt 0.53149414 0.35961914
vt 0.54663086 0.35961914
vt 0.53149414 0.39038086
vt 0.54663086 0.39038086
vt 0.53100586 0.35913086
vt 0.48461914 0.35913086
vt 0.53100586 0.34399414
vt 0.48461914 0.34399414
vt 0.57788086 0.34399414
vt 0.53149414 0.34399414
vt 0.57788086 0.35913086
vt 0.53149414 0.35913086
vt 0.54711914 0.35961914
vt 0.59350586 0.35961914
vt 0.54711914 0.39038086
vt 0.59350586 0.39038086
vt 0.48461914 0.35961914
vt 0.53100586 0.35961914
vt 0.48461914 0.39038086
vt 0.53100586 0.39038086
vt 0.18774414 0.70336914
vt 0.20288086 0.70336914
vt 0.18774414 0.82788086
vt 0.20288086 0.82788086
vt 0.28149414 0.70336914
vt 0.29663086 0.70336914
vt 0.28149414 0.82788086
vt 0.29663086 0.82788086
vt 0.28100586 0.70288086
vt 0.20336914 0.70288086
vt 0.28100586 0.68774414
vt 0.20336914 0.68774414
vt 0.35913086 0.68774414
vt 0.28149414 0.68774414
vt 0.35913086 0.70288086
vt 0.28149414 0.70288086
vt 0.29711914 0.70336914
vt 0.37475586 0.70336914
vt 0.29711914 0.82788086
vt 0.37475586 0.82788086
vt 0.20336914 0.70336914
vt 0.28100586 0.70336914
vt 0.20336914 0.82788086
vt 0.28100586 0.82788086
vt 0.00024414 0.68774414
vt 0.01538086 0.68774414
vt 0.00024414 0.81225586
vt 0.01538086 0.81225586
vt 0.09399414 0.68774414
vt 0.10913086 0.68774414
vt 0.09399414 0.81225586
vt 0.10913086 0.81225586
vt 0.09350586 0.68725586
vt 0.01586914 0.68725586
vt 0.09350586 0.67211914
vt 0.01586914 0.67211914
vt 0.17163086 0.67211914
vt 0.09399414 0.67211914
vt 0.17163086 0.68725586
vt 0.09399414 0.68725586
vt 0.10961914 0.68774414
vt 0.18725586 0.68774414
vt 0.10961914 0.81225586
vt 0.18725586 0.81225586
vt 0.01586914 0.68774414
vt 0.09350586 0.68774414
vt 0.01586914 0.81225586
vt 0.09350586 0.81225586
vn 0.00000000 0.00000000 -1.00000000
vn 0.00000000 0.00000000 -1.00000000
vn 0.00000000 0.00000000 -1.00000000
vn 0.00000000 0.00000000 -1.00000000
vn 0.00000000 0.00000000 1.00000000
vn 0.00000000 0.00000000 1.00000000
vn 0.00000000 0.00000000 1.00000000
vn 0.00000000 0.00000000 1.00000000
vn -0.17364819 0.98480779 -0.00000000
vn -0.17364819 0.98480779 -0.00000000
vn -0.17364819 0.98480779 -0.00000000
vn -0.17364819 0.98480779 -0.00000000
vn 0.17364819 -0.98480779 -0.00000000
vn 0.17364819 -0.98480779 -0.00000000
vn 0.17364819 -0.98480779 -0.00000000
vn 0.17364819 -0.98480779 -0.00000000
vn 0.98480779 0.17364819 -0.00000000
vn 0.98480779 0.17364819 -0.00000000
vn 0.98480779 0.17364819 -0.00000000
vn 0.98480779 0.17364819 -0.00000000
vn -0.98480779 -0.17364819 -0.00000000
vn -0.98480779 -0.17364819 -0.00000000
vn -0.98480779 -0.17364819 -0.00000000
vn -0.98480779 -0.17364819 -0.00000000
vn 0.00000000 0.00000000 -1.00000000
vn 0.00000000 0.00000000 -1.00000000
vn 0.00000000 0.00000000 -1.00000000
vn 0.00000000 0.00000000 -1.00000000
vn 0.00000000 0.00000000 1.00000000
vn 0.00000000 0.00000000 1.00000000
vn 0.00000000 0.00000000 1.00000000
vn 0.00000000 0.00000000 1.00000000
vn -0.30070579 0.95371699 -0.00000000
vn -0.30070579 0.95371699 -0.00000000
vn -0.30070579 0.95371699 -0.00000000
vn -0.30070579 0.95371699 -0.00000000
vn 0.30070579 -0.95371699 -0.00000000
vn 0.30070579 -0.95371699 -0.00000000
vn 0.30070579 -0.95371699 -0.00000000
vn 0.30070579 -0.95371699 -0.00000000
vn 0.95371699 0.30070579 -0.00000000
vn 0.95371699 0.30070579 -0.00000000
vn 0.95371699 0.30070579 -0.00000000
vn 0.95371699 0.30070579 -0.00000000
vn -0.95371699 -0.30070579 -0.00000000
vn -0.95371699 -0.30070579 -0.00000000
vn -0.95371699 -0.30070579 -0.00000000
vn -0.95371699 -0.30070579 -0.00000000
vn 0.54995322 -0.23955455 -0.80010307
vn 0.54995322 -0.23955455 -0.80010307
vn 0.54995322 -0.23955455 -0.80010307
vn 0.54995322 -0.23955455 -0.80010307
vn -0.54995322 0.23955455 0.80010307
vn -0.54995322 0.23955455 0.80010307
vn -0.54995322 0.23955455 0.80010307
vn -0.54995322 0.23955455 0.80010307
vn -0.16042998 0.90984368 -0.38268340
vn -0.16042998 0.90984368 -0.38268340
vn -0.16042998 0.90984368 -0.38268340
vn -0.16042998 0.90984368 -0.38268340
vn 0.16042998 -0.90984368 0.38268340
vn 0.16042998 -0.90984368 0.38268340
vn 0.16042998 -0.90984368 0.38268340
vn 0.16042998 -0.90984368 0.38268340
vn 0.81964242 0.33881855 0.46193978
vn 0.81964242 0.33881855 0.46193978
vn 0.81964242 0.33881855 0.46193978
vn 0.81964242 0.33881855 0.46193978
vn -0.81964242 -0.33881855 -0.46193978
vn -0.81964242 -0.33881855 -0.46193978
vn -0.81964242 -0.33881855 -0.46193978
vn -0.81964242 -0.33881855 -0.46193978
vn -0.54995322 0.23955455 -0.80010307
vn -0.54995322 0.23955455 -0.80010307
vn -0.54995322 0.23955455 -0.80010307
vn -0.54995322 0.23955455 -0.80010307
vn 0.54995322 -0.23955455 0.80010307
vn 0.54995322 -0.23955455 0.80010307
vn 0.54995322 -0.23955455 0.80010307
vn 0.54995322 -0.23955455 0.80010307
vn -0.16042998 0.90984368 0.38268340
vn -0.16042998 0.90984368 0.38268340
vn -0.16042998 0.90984368 0.38268340
vn -0.16042998 0.90984368 0.38268340
vn 0.16042998 -0.90984368 -0.38268340
vn 0.16042998 -0.90984368 -0.38268340
vn 0.16042998 -0.90984368 -0.38268340
vn 0.16042998 -0.90984368 -0.38268340
vn 0.81964242 0.33881855 -0.46193978
vn 0.81964242 0.33881855 -0.46193978
vn 0.81964242 0.33881855 -0.46193978
vn 0.81964242 0.33881855 -0.46193978
vn -0.81964242 -0.33881855 0.46193978
vn -0.81964242 -0.33881855 0.46193978
vn -0.81964242 -0.33881855 0.46193978
vn -0.81964242 -0.33881855 0.46193978
vn -0.12969817 0.48436081 -0.86520112
vn -0.12969817 0.48436081 -0.86520112
vn -0.12969817 0.48436081 -0.86520112
vn -0.12969817 0.48436081 -0.86520112
vn 0.12969817 -0.48436081 0.86520112
vn 0.12969817 -0.48436081 0.86520112
vn 0.12969817 -0.48436081 0.86520112
vn 0.12969817 -0.48436081 0.86520112
vn 0.55126011 0.76051456 0.34311789
vn 0.55126011 0.76051456 0.34311789
vn 0.55126011 0.76051456 0.34311789
vn 0.55126011 0.76051456 0.34311789
vn -0.55126011 -0.76051456 -0.34311789
vn -0.55126011 -0.76051456 -0.34311789
vn -0.55126011 -0.76051456 -0.34311789
vn -0.55126011 -0.76051456 -0.34311789
vn 0.82419097 -0.43244913 -0.36564612
vn 0.82419097 -0.43244913 -0.36564612
vn 0.82419097 -0.43244913 -0.36564612
vn 0.82419097 -0.43244913 -0.36564612
vn -0.82419097 0.43244913 0.36564612
vn -0.82419097 0.43244913 0.36564612
vn -0.82419097 0.43244913 0.36564612
vn -0.82419097 0.43244913 0.36564612
vn 0.10571030 -0.59951299 -0.79335332
vn 0.10571030 -0.59951299 -0.79335332
vn 0.10571030 -0.59951299 -0.79335332
vn 0.10571030 -0.59951299 -0.79335332
vn -0.10571030 0.59951299 0.79335332
vn -0.10571030 0.59951299 0.79335332
vn -0.10571030 0.59951299 0.79335332
vn -0.10571030 0.59951299 0.79335332
vn 0.52748853 0.71012986 -0.46633828
vn 0.52748853 0.71012986 -0.46633828
vn 0.52748853 0.71012986 -0.46633828
vn 0.52748853 0.71012986 -0.46633828
vn -0.52748853 -0.71012986 0.46633828
vn -0.52748853 -0.71012986 0.46633828
vn -0.52748853 -0.71012986 0.46633828
vn -0.52748853 -0.71012986 0.46633828
vn 0.84295976 -0.36918810 0.39130428
vn 0.84295976 -0.36918810 0.39130428
vn 0.84295976 -0.36918810 0.39130428
vn 0.84295976 -0.36918810 0.39130428
vn -0.84295976 0.36918810 -0.39130428
vn -0.84295976 0.36918810 -0.39130428
vn -0.84295976 0.36918810 -0.39130428
vn -0.84295976 0.36918810 -0.39130428
g deer_head
f 1/1/1 3/3/3 2/2/2
f 3/3/3 4/4/4 2/2/2
f 5/5/5 7/7/7 6/6/6
f 7/7/7 8/8/8 6/6/6
f 9/9/9 11/11/11 10/10/10
f 11/11/11 12/12/12 10/10/10
f 13/13/13 15/15/15 14/14/14
f 15/15/15 16/16/16 14/14/14
f 17/17/17 19/19/19 18/18/18
f 19/19/19 20/20/20 18/18/18
f 21/21/21 23/23/23 22/22/22
f 23/23/23 24/24/24 22/22/22
f 25/25/25 27/27/27 26/26/26
f 27/27/27 28/28/28 26/26/26
f 29/29/29 31/31/31 30/30/30
f 31/31/31 32/32/32 30/30/30
f 33/33/33 35/35/35 34/34/34
f 35/35/35 36/36/36 34/34/34
f 37/37/37 39/39/39 38/38/38
f 39/39/39 40/40/40 38/38/38
f 41/41/41 43/43/43 42/42/42
f 43/43/43 44/44/44 42/42/42
f 45/45/45 47/47/47 46/46/46
f 47/47/47 48/48/48 46/46/46
f 49/49/49 51/51/51 50/50/50
f 51/51/51 52/52/52 50/50/50
f 53/53/53 55/55/55 54/54/54
f 55/55/55 56/56/56 54/54/54
f 57/57/57 59/59/59 58/58/58
f 59/59/59 60/60/60 58/58/58
f 61/61/61 63/63/63 62/62/62
f 63/63/63 64/64/64 62/62/62
f 65/65/65 67/67/67 66/66/66
f 67/67/67 68/68/68 66/66/66
f 69/69/69 71/71/71 70/70/70
f 71/71/71 72/72/72 70/70/70
f 73/73/73 75/75/75 74/74/74
f 75/75/75 76/76/76 74/74/74
f 77/77/77 79/79/79 78/78/78
f 79/79/79 80/80/80 78/78/78
f 81/81/81 83/83/83 82/82/82
f 83/83/83 84/84/84 82/82/82
f 85/85/85 87/87/87 86/86/86
f 87/87/87 88/88/88 86/86/86
f 89/89/89 91/91/91 90/90/90
f 91/91/91 92/92/92 90/90/90
f 93/93/93 95/95/95 94/94/94
f 95/95/95 96/96/96 94/94/94
f 97/97/97 99/99/99 98/98/98
f 99/99/99 100/100/100 98/98/98
f 101/101/101 103/103/103 102/102/102
f 103/103/103 104/104/104 102/102/102
f 105/105/105 107/107/107 106/106/106
f 107/107/107 108/108/108 106/106/106
f 109/109/109 111/111/111 110/110/110
f 111/111/111 112/112/112 110/110/110
f 113/113/113 115/115/115 114/114/114
f 115/115/115 116/116/116 114/114/114
f 117/117/117 119/119/119 118/118/118
f 119/119/119 120/120/120 118/118/118
f 121/121/121 123/123/123 122/122/122
f 123/123/123 124/124/124 122/122/122
f 125/125/125 127/127/127 126/126/126
f 127/127/127 128/128/128 126/126/126
f 129/129/129 131/131/131 130/130/130
f 131/131/131 132/132/132 130/130/130
f 133/133/133 135/135/135 134/134/134
f 135/135/135 136/136/136 134/134/134
f 137/137/137 139/139/139 138/138/138
f 139/139/139 140/140/140 138/138/138
f 141/141/141 143/143/143 142/142/142
f 143/143/143 144/144/144 142/142/142
