# Converted from model.gltf in neutral pose; origin at the humanoid joint.
v 0.06250000 0.06250000 -0.06250000
v -0.06250000 0.06250000 -0.06250000
v 0.06250000 -0.68750000 -0.06250000
v -0.06250000 -0.68750000 -0.06250000
v -0.06250000 0.06250000 0.06250000
v 0.06250000 0.06250000 0.06250000
v -0.06250000 -0.68750000 0.06250000
v 0.06250000 -0.68750000 0.06250000
v -0.06250000 0.06250000 0.06250000
v -0.06250000 0.06250000 -0.06250000
v 0.06250000 0.06250000 0.06250000
v 0.06250000 0.06250000 -0.06250000
v 0.06250000 -0.68750000 0.06250000
v 0.06250000 -0.68750000 -0.06250000
v -0.06250000 -0.68750000 0.06250000
v -0.06250000 -0.68750000 -0.06250000
v 0.06250000 0.06250000 0.06250000
v 0.06250000 0.06250000 -0.06250000
v 0.06250000 -0.68750000 0.06250000
v 0.06250000 -0.68750000 -0.06250000
v -0.06250000 0.06250000 -0.06250000
v -0.06250000 0.06250000 0.06250000
v -0.06250000 -0.68750000 -0.06250000
v -0.06250000 -0.68750000 0.06250000
vt 0.37524414 0.28149414
vt 0.40600586 0.28149414
vt 0.37524414 0.46850586
vt 0.40600586 0.46850586
vt 0.43774414 0.28149414
vt 0.46850586 0.28149414
vt 0.43774414 0.46850586
vt 0.46850586 0.46850586
vt 0.43725586 0.28100586
vt 0.40649414 0.28100586
vt 0.43725586 0.25024414
vt 0.40649414 0.25024414
vt 0.46850586 0.25024414
vt 0.43774414 0.25024414
vt 0.46850586 0.28100586
vt 0.43774414 0.28100586
vt 0.46899414 0.28149414
vt 0.49975586 0.28149414
vt 0.46899414 0.46850586
vt 0.49975586 0.46850586
vt 0.40649414 0.28149414
vt 0.43725586 0.28149414
vt 0.40649414 0.46850586
vt 0.43725586 0.46850586
vn 0.00000000 0.00000000 -1.00000000
vn 0.00000000 0.00000000 -1.00000000
vn 0.00000000 0.00000000 -1.00000000
vn 0.00000000 0.00000000 -1.00000000
vn 0.00000000 0.00000000 1.00000000
vn 0.00000000 0.00000000 1.00000000
vn 0.00000000 0.00000000 1.00000000
vn 0.00000000 0.00000000 1.00000000
vn 0.00000000 1.00000000 -0.00000000
vn 0.00000000 1.00000000 -0.00000000
vn 0.00000000 1.00000000 -0.00000000
vn 0.00000000 1.00000000 -0.00000000
vn 0.00000000 -1.00000000 -0.00000000
vn 0.00000000 -1.00000000 -0.00000000
vn 0.00000000 -1.00000000 -0.00000000
vn 0.00000000 -1.00000000 -0.00000000
vn 1.00000000 0.00000000 -0.00000000
vn 1.00000000 0.00000000 -0.00000000
vn 1.00000000 0.00000000 -0.00000000
vn 1.00000000 0.00000000 -0.00000000
vn -1.00000000 0.00000000 -0.00000000
vn -1.00000000 0.00000000 -0.00000000
vn -1.00000000 0.00000000 -0.00000000
vn -1.00000000 0.00000000 -0.00000000
g mossy_skeleton_leg_right
f 1/1/1 3/3/3 2/2/2
f 3/3/3 4/4/4 2/2/2
f 5/5/5 7/7/7 6/6/6
f 7/7/7 8/8/8 6/6/6
f 9/9/9 11/11/11 10/10/10
f 11/11/11 12/12/12 10/10/10
f 13/13/13 15/15/15 14/14/14
f 15/15/15 16/16/16 14/14/14
f 17/17/17 19/19/19 18/18/18
f 19/19/19 20/20/20 18/18/18
f 21/21/21 23/23/23 22/22/22
f 23/23/23 24/24/24 22/22/22
