# Split from pig.fbx; local origin is the attachment joint.
v -0.10160000 -0.10160000 0.20320000
v 0.10160000 -0.10160000 0.20320000
v -0.10160000 -0.10160000 -0.00000000
v 0.10160000 -0.10160000 -0.00000000
v -0.10160000 0.10160000 0.20320000
v 0.10160000 0.10160000 0.20320000
v -0.10160000 0.10160000 -0.00000000
v 0.10160000 0.10160000 -0.00000000
v -0.05080000 -0.07620000 0.20320000
v -0.05080000 0.00000000 0.20320000
v 0.05080000 -0.07620000 0.20320000
v -0.05080000 -0.07620000 0.22860000
v 0.05080000 -0.07620000 0.22860000
v -0.05080000 0.00000000 0.22860000
v 0.05080000 0.00000000 0.22860000
v 0.05080000 0.00000000 0.20320000
vt 0.25000000 0.87500000
vt 0.25000000 1.00000000
vt 0.37500000 1.00000000
vt 0.37500000 0.87500000
vt 0.12500000 0.87500000
vt 0.25000000 0.87500000
vt 0.25000000 1.00000000
vt 0.12500000 1.00000000
vt 0.12500000 0.75000000
vt 0.25000000 0.75000000
vt 0.25000000 0.87500000
vt 0.12500000 0.87500000
vt 0.25000000 0.75000000
vt 0.37500000 0.75000000
vt 0.37500000 0.87500000
vt 0.25000000 0.87500000
vt 0.37500000 0.75000000
vt 0.50000000 0.75000000
vt 0.50000000 0.87500000
vt 0.37500000 0.87500000
vt 0.00000000 0.75000000
vt 0.12500000 0.75000000
vt 0.12500000 0.87500000
vt 0.00000000 0.87500000
vt 0.25000000 0.73395652
vt 0.25000000 0.68750000
vt 0.26594284 0.68750000
vt 0.26594284 0.73395652
vt 0.32800001 0.75000000
vt 0.38750002 0.75000000
vt 0.38750002 0.73400003
vt 0.32800001 0.73400003
vt 0.26594284 0.68750000
vt 0.32800001 0.68750000
vt 0.32800001 0.73400003
vt 0.26594284 0.73395652
vt 0.32800001 0.75000000
vt 0.26594281 0.74999994
vt 0.26594284 0.73395652
vt 0.32800001 0.73400003
vt 0.34299999 0.68750000
vt 0.34299999 0.73400003
vt 0.32800001 0.73400003
vt 0.32800001 0.68750000
vn 0.00000000 -1.00000000 0.00000000
vn -0.00000000 1.00000000 0.00000000
vn 0.00000000 0.00000000 1.00000000
vn 1.00000000 0.00000000 0.00000000
vn 0.00000000 0.00000000 -1.00000000
vn -1.00000000 0.00000000 0.00000000
vn -1.00000000 0.00000000 0.00000000
vn 0.00000000 -1.00000000 0.00000000
vn 0.00000000 0.00000000 1.00000000
vn 0.00000000 1.00000000 0.00000000
vn 1.00000000 0.00000000 0.00000000
g pig_head
f 1/1/1 3/2/1 4/3/1 2/4/1
f 5/5/2 6/6/2 8/7/2 7/8/2
f 1/9/3 2/10/3 6/11/3 5/12/3
f 2/13/4 4/14/4 8/15/4 6/16/4
f 4/17/5 3/18/5 7/19/5 8/20/5
f 3/21/6 1/22/6 5/23/6 7/24/6
f 10/25/7 9/26/7 12/27/7 14/28/7
f 9/29/8 11/30/8 13/31/8 12/32/8
f 12/33/9 13/34/9 15/35/9 14/36/9
f 16/37/10 10/38/10 14/39/10 15/40/10
f 11/41/11 16/42/11 15/43/11 13/44/11
