# Converted from model.gltf; joint-local geometry, engine +Y forward.
v 0.12500000 -0.25000000 -0.06250000
v -0.06250000 -0.25000000 -0.06250000
v 0.12500000 -0.62500000 -0.06250000
v -0.06250000 -0.62500000 -0.06250000
v -0.06250000 -0.25000000 0.06250000
v 0.12500000 -0.25000000 0.06250000
v -0.06250000 -0.62500000 0.06250000
v 0.12500000 -0.62500000 0.06250000
v -0.06250000 -0.25000000 0.06250000
v -0.06250000 -0.25000000 -0.06250000
v 0.12500000 -0.25000000 0.06250000
v 0.12500000 -0.25000000 -0.06250000
v 0.12500000 -0.62500000 0.06250000
v 0.12500000 -0.62500000 -0.06250000
v -0.06250000 -0.62500000 0.06250000
v -0.06250000 -0.62500000 -0.06250000
v 0.12500000 -0.25000000 0.06250000
v 0.12500000 -0.25000000 -0.06250000
v 0.12500000 -0.62500000 0.06250000
v 0.12500000 -0.62500000 -0.06250000
v -0.06250000 -0.25000000 -0.06250000
v -0.06250000 -0.25000000 0.06250000
v -0.06250000 -0.62500000 -0.06250000
v -0.06250000 -0.62500000 0.06250000
v 0.12500000 0.06250000 -0.09375000
v -0.18750000 0.06250000 -0.09375000
v 0.12500000 -0.25000000 -0.09375000
v -0.18750000 -0.25000000 -0.09375000
v -0.18750000 0.06250000 0.09375000
v 0.12500000 0.06250000 0.09375000
v -0.18750000 -0.25000000 0.09375000
v 0.12500000 -0.25000000 0.09375000
v -0.18750000 0.06250000 0.09375000
v -0.18750000 0.06250000 -0.09375000
v 0.12500000 0.06250000 0.09375000
v 0.12500000 0.06250000 -0.09375000
v 0.12500000 -0.25000000 0.09375000
v 0.12500000 -0.25000000 -0.09375000
v -0.18750000 -0.25000000 0.09375000
v -0.18750000 -0.25000000 -0.09375000
v 0.12500000 0.06250000 0.09375000
v 0.12500000 0.06250000 -0.09375000
v 0.12500000 -0.25000000 0.09375000
v 0.12500000 -0.25000000 -0.09375000
v -0.18750000 0.06250000 -0.09375000
v -0.18750000 0.06250000 0.09375000
v -0.18750000 -0.25000000 -0.09375000
v -0.18750000 -0.25000000 0.09375000
vt 0.57836914 0.78149414
vt 0.62475586 0.78149414
vt 0.57836914 0.87475586
vt 0.62475586 0.87475586
vt 0.65649414 0.78149414
vt 0.70288086 0.78149414
vt 0.65649414 0.87475586
vt 0.70288086 0.87475586
vt 0.65600586 0.78100586
vt 0.62524414 0.78100586
vt 0.65600586 0.73461914
vt 0.62524414 0.73461914
vt 0.68725586 0.73461914
vt 0.65649414 0.73461914
vt 0.68725586 0.78100586
vt 0.65649414 0.78100586
vt 0.70336914 0.78149414
vt 0.73413086 0.78149414
vt 0.70336914 0.87475586
vt 0.73413086 0.87475586
vt 0.62524414 0.78149414
vt 0.65600586 0.78149414
vt 0.62524414 0.87475586
vt 0.65600586 0.87475586
vt 0.57836914 0.65649414
vt 0.65600586 0.65649414
vt 0.57836914 0.73413086
vt 0.65600586 0.73413086
vt 0.70336914 0.65649414
vt 0.78100586 0.65649414
vt 0.70336914 0.73413086
vt 0.78100586 0.73413086
vt 0.70288086 0.65600586
vt 0.65649414 0.65600586
vt 0.70288086 0.57836914
vt 0.65649414 0.57836914
vt 0.74975586 0.57836914
vt 0.70336914 0.57836914
vt 0.74975586 0.65600586
vt 0.70336914 0.65600586
vt 0.78149414 0.65649414
vt 0.82788086 0.65649414
vt 0.78149414 0.73413086
vt 0.82788086 0.73413086
vt 0.65649414 0.65649414
vt 0.70288086 0.65649414
vt 0.65649414 0.73413086
vt 0.70288086 0.73413086
vn 0.00000000 0.00000000 -1.00000000
vn 0.00000000 0.00000000 -1.00000000
vn 0.00000000 0.00000000 -1.00000000
vn 0.00000000 0.00000000 -1.00000000
vn 0.00000000 0.00000000 1.00000000
vn 0.00000000 0.00000000 1.00000000
vn 0.00000000 0.00000000 1.00000000
vn 0.00000000 0.00000000 1.00000000
vn 0.00000000 1.00000000 -0.00000000
vn 0.00000000 1.00000000 -0.00000000
vn 0.00000000 1.00000000 -0.00000000
vn 0.00000000 1.00000000 -0.00000000
vn 0.00000000 -1.00000000 -0.00000000
vn 0.00000000 -1.00000000 -0.00000000
vn 0.00000000 -1.00000000 -0.00000000
vn 0.00000000 -1.00000000 -0.00000000
vn 1.00000000 0.00000000 -0.00000000
vn 1.00000000 0.00000000 -0.00000000
vn 1.00000000 0.00000000 -0.00000000
vn 1.00000000 0.00000000 -0.00000000
vn -1.00000000 0.00000000 -0.00000000
vn -1.00000000 0.00000000 -0.00000000
vn -1.00000000 0.00000000 -0.00000000
vn -1.00000000 0.00000000 -0.00000000
vn 0.00000000 0.00000000 -1.00000000
vn 0.00000000 0.00000000 -1.00000000
vn 0.00000000 0.00000000 -1.00000000
vn 0.00000000 0.00000000 -1.00000000
vn 0.00000000 0.00000000 1.00000000
vn 0.00000000 0.00000000 1.00000000
vn 0.00000000 0.00000000 1.00000000
vn 0.00000000 0.00000000 1.00000000
vn 0.00000000 1.00000000 -0.00000000
vn 0.00000000 1.00000000 -0.00000000
vn 0.00000000 1.00000000 -0.00000000
vn 0.00000000 1.00000000 -0.00000000
vn 0.00000000 -1.00000000 -0.00000000
vn 0.00000000 -1.00000000 -0.00000000
vn 0.00000000 -1.00000000 -0.00000000
vn 0.00000000 -1.00000000 -0.00000000
vn 1.00000000 0.00000000 -0.00000000
vn 1.00000000 0.00000000 -0.00000000
vn 1.00000000 0.00000000 -0.00000000
vn 1.00000000 0.00000000 -0.00000000
vn -1.00000000 0.00000000 -0.00000000
vn -1.00000000 0.00000000 -0.00000000
vn -1.00000000 0.00000000 -0.00000000
vn -1.00000000 0.00000000 -0.00000000
g doe_leg_left_rear
f 1/1/1 3/3/3 2/2/2
f 3/3/3 4/4/4 2/2/2
f 5/5/5 7/7/7 6/6/6
f 7/7/7 8/8/8 6/6/6
f 9/9/9 11/11/11 10/10/10
f 11/11/11 12/12/12 10/10/10
f 13/13/13 15/15/15 14/14/14
f 15/15/15 16/16/16 14/14/14
f 17/17/17 19/19/19 18/18/18
f 19/19/19 20/20/20 18/18/18
f 21/21/21 23/23/23 22/22/22
f 23/23/23 24/24/24 22/22/22
f 25/25/25 27/27/27 26/26/26
f 27/27/27 28/28/28 26/26/26
f 29/29/29 31/31/31 30/30/30
f 31/31/31 32/32/32 30/30/30
f 33/33/33 35/35/35 34/34/34
f 35/35/35 36/36/36 34/34/34
f 37/37/37 39/39/39 38/38/38
f 39/39/39 40/40/40 38/38/38
f 41/41/41 43/43/43 42/42/42
f 43/43/43 44/44/44 42/42/42
f 45/45/45 47/47/47 46/46/46
f 47/47/47 48/48/48 46/46/46
