# Split from pig.fbx; local origin is the attachment joint.
v -0.12700000 0.00000000 0.20320000
v -0.12700000 0.00000000 -0.20320000
v 0.12700000 0.00000000 0.20320000
v -0.12700000 0.20320000 0.20320000
v 0.12700000 0.20320000 0.20320000
v -0.12700000 0.20320000 -0.20320000
v 0.12700000 0.20320000 -0.20320000
v 0.12700000 0.00000000 -0.20320000
vt 0.56250000 0.50000000
vt 0.56250000 0.75000000
vt 0.43749082 0.75000000
vt 0.43750000 0.50000000
vt 0.56250000 0.75000000
vt 0.56250000 0.50000000
vt 0.72500002 0.50000000
vt 0.72500002 0.75000000
vt 0.56250000 0.75000000
vt 0.72500002 0.75000000
vt 0.72500002 0.87500000
vt 0.56250000 0.87500000
vt 1.00000000 0.75000000
vt 0.85000002 0.75000000
vt 0.85000002 0.50000000
vt 1.00000000 0.50000000
vt 0.87603283 0.75000000
vt 0.72603285 0.75000000
vt 0.72604376 0.87500000
vt 0.87603283 0.87500000
vt 0.72500002 0.75000000
vt 0.72500002 0.50000000
vt 0.85000002 0.50000000
vt 0.85000002 0.75000000
vn -1.00000000 0.00000000 0.00000000
vn 0.00000000 -1.00000000 0.00000000
vn 0.00000000 0.00000000 1.00000000
vn -0.00000000 1.00000000 0.00000000
vn 0.00000000 0.00000000 -1.00000000
vn 1.00000000 0.00000000 0.00000000
g pig_torso
f 2/1/1 1/2/1 4/3/1 6/4/1
f 1/5/2 2/6/2 8/7/2 3/8/2
f 1/9/3 3/10/3 5/11/3 4/12/3
f 4/13/4 5/14/4 7/15/4 6/16/4
f 8/17/5 2/18/5 6/19/5 7/20/5
f 3/21/6 8/22/6 7/23/6 5/24/6
