# Converted from model.gltf; joint-local geometry, engine +Y forward.
v 0.12500000 -0.25000000 -0.06250000
v -0.06250000 -0.25000000 -0.06250000
v 0.12500000 -0.62500000 -0.06250000
v -0.06250000 -0.62500000 -0.06250000
v -0.06250000 -0.25000000 0.06250000
v 0.12500000 -0.25000000 0.06250000
v -0.06250000 -0.62500000 0.06250000
v 0.12500000 -0.62500000 0.06250000
v -0.06250000 -0.25000000 0.06250000
v -0.06250000 -0.25000000 -0.06250000
v 0.12500000 -0.25000000 0.06250000
v 0.12500000 -0.25000000 -0.06250000
v 0.12500000 -0.62500000 0.06250000
v 0.12500000 -0.62500000 -0.06250000
v -0.06250000 -0.62500000 0.06250000
v -0.06250000 -0.62500000 -0.06250000
v 0.12500000 -0.25000000 0.06250000
v 0.12500000 -0.25000000 -0.06250000
v 0.12500000 -0.62500000 0.06250000
v 0.12500000 -0.62500000 -0.06250000
v -0.06250000 -0.25000000 -0.06250000
v -0.06250000 -0.25000000 0.06250000
v -0.06250000 -0.62500000 -0.06250000
v -0.06250000 -0.62500000 0.06250000
v 0.12500000 0.06250000 -0.09375000
v -0.18750000 0.06250000 -0.09375000
v 0.12500000 -0.25000000 -0.09375000
v -0.18750000 -0.25000000 -0.09375000
v -0.18750000 0.06250000 0.09375000
v 0.12500000 0.06250000 0.09375000
v -0.18750000 -0.25000000 0.09375000
v 0.12500000 -0.25000000 0.09375000
v -0.18750000 0.06250000 0.09375000
v -0.18750000 0.06250000 -0.09375000
v 0.12500000 0.06250000 0.09375000
v 0.12500000 0.06250000 -0.09375000
v 0.12500000 -0.25000000 0.09375000
v 0.12500000 -0.25000000 -0.09375000
v -0.18750000 -0.25000000 0.09375000
v -0.18750000 -0.25000000 -0.09375000
v 0.12500000 0.06250000 0.09375000
v 0.12500000 0.06250000 -0.09375000
v 0.12500000 -0.25000000 0.09375000
v 0.12500000 -0.25000000 -0.09375000
v -0.18750000 0.06250000 -0.09375000
v -0.18750000 0.06250000 0.09375000
v -0.18750000 -0.25000000 -0.09375000
v -0.18750000 -0.25000000 0.09375000
vt 0.00024414 0.04711914
vt 0.04663086 0.04711914
vt 0.00024414 0.14038086
vt 0.04663086 0.14038086
vt 0.07836914 0.04711914
vt 0.12475586 0.04711914
vt 0.07836914 0.14038086
vt 0.12475586 0.14038086
vt 0.07788086 0.04663086
vt 0.04711914 0.04663086
vt 0.07788086 0.00024414
vt 0.04711914 0.00024414
vt 0.10913086 0.00024414
vt 0.07836914 0.00024414
vt 0.10913086 0.04663086
vt 0.07836914 0.04663086
vt 0.12524414 0.04711914
vt 0.15600586 0.04711914
vt 0.12524414 0.14038086
vt 0.15600586 0.14038086
vt 0.04711914 0.04711914
vt 0.07788086 0.04711914
vt 0.04711914 0.14038086
vt 0.07788086 0.14038086
vt 0.00024414 0.59399414
vt 0.07788086 0.59399414
vt 0.00024414 0.67163086
vt 0.07788086 0.67163086
vt 0.12524414 0.59399414
vt 0.20288086 0.59399414
vt 0.12524414 0.67163086
vt 0.20288086 0.67163086
vt 0.12475586 0.59350586
vt 0.07836914 0.59350586
vt 0.12475586 0.51586914
vt 0.07836914 0.51586914
vt 0.17163086 0.51586914
vt 0.12524414 0.51586914
vt 0.17163086 0.59350586
vt 0.12524414 0.59350586
vt 0.20336914 0.59399414
vt 0.24975586 0.59399414
vt 0.20336914 0.67163086
vt 0.24975586 0.67163086
vt 0.07836914 0.59399414
vt 0.12475586 0.59399414
vt 0.07836914 0.67163086
vt 0.12475586 0.67163086
vn 0.00000000 0.00000000 -1.00000000
vn 0.00000000 0.00000000 -1.00000000
vn 0.00000000 0.00000000 -1.00000000
vn 0.00000000 0.00000000 -1.00000000
vn 0.00000000 0.00000000 1.00000000
vn 0.00000000 0.00000000 1.00000000
vn 0.00000000 0.00000000 1.00000000
vn 0.00000000 0.00000000 1.00000000
vn 0.00000000 1.00000000 -0.00000000
vn 0.00000000 1.00000000 -0.00000000
vn 0.00000000 1.00000000 -0.00000000
vn 0.00000000 1.00000000 -0.00000000
vn 0.00000000 -1.00000000 -0.00000000
vn 0.00000000 -1.00000000 -0.00000000
vn 0.00000000 -1.00000000 -0.00000000
vn 0.00000000 -1.00000000 -0.00000000
vn 1.00000000 0.00000000 -0.00000000
vn 1.00000000 0.00000000 -0.00000000
vn 1.00000000 0.00000000 -0.00000000
vn 1.00000000 0.00000000 -0.00000000
vn -1.00000000 0.00000000 -0.00000000
vn -1.00000000 0.00000000 -0.00000000
vn -1.00000000 0.00000000 -0.00000000
vn -1.00000000 0.00000000 -0.00000000
vn 0.00000000 0.00000000 -1.00000000
vn 0.00000000 0.00000000 -1.00000000
vn 0.00000000 0.00000000 -1.00000000
vn 0.00000000 0.00000000 -1.00000000
vn 0.00000000 0.00000000 1.00000000
vn 0.00000000 0.00000000 1.00000000
vn 0.00000000 0.00000000 1.00000000
vn 0.00000000 0.00000000 1.00000000
vn 0.00000000 1.00000000 -0.00000000
vn 0.00000000 1.00000000 -0.00000000
vn 0.00000000 1.00000000 -0.00000000
vn 0.00000000 1.00000000 -0.00000000
vn 0.00000000 -1.00000000 -0.00000000
vn 0.00000000 -1.00000000 -0.00000000
vn 0.00000000 -1.00000000 -0.00000000
vn 0.00000000 -1.00000000 -0.00000000
vn 1.00000000 0.00000000 -0.00000000
vn 1.00000000 0.00000000 -0.00000000
vn 1.00000000 0.00000000 -0.00000000
vn 1.00000000 0.00000000 -0.00000000
vn -1.00000000 0.00000000 -0.00000000
vn -1.00000000 0.00000000 -0.00000000
vn -1.00000000 0.00000000 -0.00000000
vn -1.00000000 0.00000000 -0.00000000
g deer_leg_right_rear
f 1/1/1 3/3/3 2/2/2
f 3/3/3 4/4/4 2/2/2
f 5/5/5 7/7/7 6/6/6
f 7/7/7 8/8/8 6/6/6
f 9/9/9 11/11/11 10/10/10
f 11/11/11 12/12/12 10/10/10
f 13/13/13 15/15/15 14/14/14
f 15/15/15 16/16/16 14/14/14
f 17/17/17 19/19/19 18/18/18
f 19/19/19 20/20/20 18/18/18
f 21/21/21 23/23/23 22/22/22
f 23/23/23 24/24/24 22/22/22
f 25/25/25 27/27/27 26/26/26
f 27/27/27 28/28/28 26/26/26
f 29/29/29 31/31/31 30/30/30
f 31/31/31 32/32/32 30/30/30
f 33/33/33 35/35/35 34/34/34
f 35/35/35 36/36/36 34/34/34
f 37/37/37 39/39/39 38/38/38
f 39/39/39 40/40/40 38/38/38
f 41/41/41 43/43/43 42/42/42
f 43/43/43 44/44/44 42/42/42
f 45/45/45 47/47/47 46/46/46
f 47/47/47 48/48/48 46/46/46
