# Wavefront OBJ file
# Exported by Misfit Model 3D 1.3.8
# Wed Sep 16 23:19:43 2026

mtllib door.mtl

# 160 Vertices
v -0.5 0.0 0.3
v -0.5 1.0 0.3
v 0.5 0.0 0.3
v 0.5 1.0 0.3
v -0.5 2.0 0.3
v 0.5 2.0 0.3
v -0.05 0.0 0.3
v -0.05 1.0 0.3
v -0.05 2.0 0.3
v 0.090698 0.0 0.3
v 0.090698 1.0 0.3
v 0.090698 2.0 0.3
v -0.5 1.559211 0.3
v 0.5 1.559211 0.3
v -0.067377 1.559211 0.3
v 0.073321 1.559211 0.3
v -0.5 1.448669 0.3
v 0.5 1.448669 0.3
v -0.067377 1.448669 0.3
v 0.073321 1.448669 0.3
v -0.5 1.924176 0.3
v 0.5 1.924176 0.3
v -0.067377 1.831071 0.3
v 0.073321 1.831071 0.3
v 0.425755 0.0 0.3
v 0.425755 1.0 0.3
v 0.425755 2.0 0.3
v 0.425755 1.559211 0.3
v 0.425755 1.448669 0.3
v 0.425755 1.831071 0.3
v -0.5 1.107223 0.3
v 0.5 1.107223 0.3
v -0.067377 1.195373 0.3
v 0.073321 1.195373 0.3
v 0.425755 1.195373 0.3
v -0.410257 1.0 0.3
v -0.410257 2.0 0.3
v -0.410257 0.0 0.3
v -0.410257 1.559211 0.3
v -0.410257 1.448669 0.3
v -0.410257 1.831071 0.3
v -0.410257 1.195373 0.3
v -0.5 0.0 0.5
v -0.5 1.0 0.5
v -0.5 0.0 0.3
v -0.5 1.0 0.3
v 0.5 0.0 0.5
v 0.5 1.0 0.5
v 0.5 0.0 0.3
v 0.5 1.0 0.3
v -0.5 2.0 0.5
v -0.5 2.0 0.3
v 0.5 2.0 0.3
v 0.5 2.0 0.5
v -0.05 0.0 0.3
v -0.05 0.0 0.5
v -0.05 2.0 0.3
v -0.05 2.0 0.5
v 0.090698 0.0 0.5
v 0.090698 2.0 0.3
v 0.090698 0.0 0.3
v 0.090698 2.0 0.5
v -0.5 1.559211 0.5
v -0.5 1.559211 0.3
v 0.5 1.559211 0.5
v 0.5 1.559211 0.3
v -0.067377 1.559211 0.3
v -0.067377 1.559211 0.5
v 0.073321 1.559211 0.3
v 0.073321 1.559211 0.5
v -0.5 1.448669 0.3
v 0.5 1.448669 0.3
v -0.5 1.448669 0.5
v 0.5 1.448669 0.5
v -0.067377 1.448669 0.3
v -0.067377 1.448669 0.5
v 0.073321 1.448669 0.3
v 0.073321 1.448669 0.5
v -0.5 1.924176 0.5
v 0.5 1.924176 0.5
v -0.067377 1.831071 0.3
v -0.067377 1.831071 0.5
v 0.073321 1.831071 0.3
v 0.073321 1.831071 0.5
v -0.5 1.924176 0.3
v 0.5 1.924176 0.3
v 0.425755 0.0 0.5
v 0.425755 2.0 0.3
v 0.425755 0.0 0.3
v 0.425755 2.0 0.5
v 0.425755 1.559211 0.3
v 0.425755 1.559211 0.5
v 0.425755 1.448669 0.5
v 0.425755 1.448669 0.3
v 0.425755 1.831071 0.3
v 0.425755 1.831071 0.5
v -0.5 1.107223 0.3
v 0.5 1.107223 0.3
v -0.5 1.107223 0.5
v 0.5 1.107223 0.5
v -0.067377 1.195373 0.3
v -0.067377 1.195373 0.5
v 0.073321 1.195373 0.3
v 0.073321 1.195373 0.5
v 0.425755 1.195373 0.3
v 0.425755 1.195373 0.5
v -0.410257 0.0 0.3
v -0.410257 2.0 0.5
v -0.410257 0.0 0.5
v -0.410257 2.0 0.3
v -0.410257 1.559211 0.5
v -0.410257 1.559211 0.3
v -0.410257 1.448669 0.3
v -0.410257 1.448669 0.5
v -0.410257 1.831071 0.5
v -0.410257 1.831071 0.3
v -0.410257 1.195373 0.5
v -0.410257 1.195373 0.3
v -0.5 0.0 0.5
v -0.5 1.0 0.5
v 0.5 0.0 0.5
v 0.5 1.0 0.5
v -0.5 2.0 0.5
v 0.5 2.0 0.5
v -0.05 0.0 0.5
v -0.05 1.0 0.5
v -0.05 2.0 0.5
v 0.090698 0.0 0.5
v 0.090698 1.0 0.5
v 0.090698 2.0 0.5
v -0.5 1.559211 0.5
v 0.5 1.559211 0.5
v -0.067377 1.559211 0.5
v 0.073321 1.559211 0.5
v -0.5 1.448669 0.5
v 0.5 1.448669 0.5
v -0.067377 1.448669 0.5
v 0.073321 1.448669 0.5
v -0.5 1.924176 0.5
v 0.5 1.924176 0.5
v -0.067377 1.831071 0.5
v 0.073321 1.831071 0.5
v 0.425755 0.0 0.5
v 0.425755 1.0 0.5
v 0.425755 2.0 0.5
v 0.425755 1.559211 0.5
v 0.425755 1.448669 0.5
v 0.425755 1.831071 0.5
v -0.5 1.107223 0.5
v 0.5 1.107223 0.5
v -0.067377 1.195373 0.5
v 0.073321 1.195373 0.5
v 0.425755 1.195373 0.5
v -0.410257 1.0 0.5
v -0.410257 2.0 0.5
v -0.410257 0.0 0.5
v -0.410257 1.559211 0.5
v -0.410257 1.448669 0.5
v -0.410257 1.831071 0.5
v -0.410257 1.195373 0.5

# 516 Texture Coordinates
vt 0.938656 0.872281
vt 1.003345 0.942642
vt 1.003288 0.998768
vt 0.938656 0.872281
vt 1.003288 0.998768
vt 0.93853 0.997188
vt 0.085661 0.815122
vt 0.430484 0.815122
vt 0.447959 0.999327
vt 0.085661 0.815122
vt 0.447959 0.999327
vt 0.085661 0.999327
vt 0.430484 0.815122
vt 0.571979 0.815122
vt 0.589454 0.999327
vt 0.430484 0.815122
vt 0.589454 0.999327
vt 0.447959 0.999327
vt 0.449762 0.518069
vt 0.555153 0.518069
vt 0.555153 0.629521
vt 0.449762 0.518069
vt 0.555153 0.629521
vt 0.449762 0.629521
vt 0.192923 0.518069
vt 0.449762 0.518069
vt 0.449762 0.629521
vt 0.192923 0.518069
vt 0.449762 0.629521
vt 0.192923 0.629521
vt 0.942043 0.557948
vt 0.9975 0.557978
vt 0.997418 0.648843
vt 0.942043 0.557948
vt 0.997418 0.648843
vt 0.94196 0.648813
vt 0.939132 0.34974
vt 0.997756 0.277311
vt 0.9975 0.557978
vt 0.939132 0.34974
vt 0.9975 0.557978
vt 0.938942 0.557948
vt 0.444195 0.312385
vt 0.560012 0.312385
vt 0.555153 0.518069
vt 0.444195 0.312385
vt 0.555153 0.518069
vt 0.449762 0.518069
vt 0.442215 0.629521
vt 0.5627 0.629521
vt 0.564979 0.808921
vt 0.442215 0.629521
vt 0.564979 0.808921
vt 0.437484 0.808921
vt 0.937309 0.648813
vt 0.997418 0.648843
vt 0.997144 0.948843
vt 0.937309 0.648813
vt 0.997144 0.948843
vt 0.937106 0.872281
vt 0.555153 0.518069
vt 0.819148 0.518069
vt 0.819148 0.629521
vt 0.555153 0.518069
vt 0.819148 0.629521
vt 0.555153 0.629521
vt 0.571979 0.815122
vt 0.938812 0.815122
vt 0.938812 0.999327
vt 0.571979 0.815122
vt 0.938812 0.999327
vt 0.589454 0.999327
vt 0.619303 -0.002236
vt 0.934627 0.003433
vt 0.936319 0.3095
vt 0.619303 -0.002236
vt 0.936319 0.3095
vt 0.599387 0.313808
vt 0.440849 -0.000516
vt 0.59196 -0.002236
vt 0.590598 0.313808
vt 0.440849 -0.000516
vt 0.590598 0.313808
vt 0.440463 0.315528
vt 0.089805 -0.000018
vt 0.440849 -0.000516
vt 0.420932 0.315528
vt 0.089805 -0.000018
vt 0.420932 0.315528
vt 0.091496 0.311907
vt 0.936116 -0.001262
vt 1.001842 -0.00204
vt 1.00277 0.167142
vt 0.936116 -0.001262
vt 1.00277 0.167142
vt 0.937808 0.215084
vt -0.000884 -0.002828
vt 0.089805 -0.000018
vt 0.091496 0.311907
vt -0.000884 -0.002828
vt 0.091496 0.311907
vt 0.000044 0.312248
vt 0.001701 0.662102
vt 0.084492 0.662119
vt 0.08439 0.871179
vt 0.001701 0.662102
vt 0.08439 0.871179
vt 0.001563 0.942759
vt 0.001872 0.314525
vt 0.176091 0.315923
vt 0.175996 0.577113
vt 0.001872 0.314525
vt 0.175996 0.577113
vt 0.001743 0.577096
vt 0.001743 0.577096
vt 0.13104 0.577113
vt 0.130998 0.662119
vt 0.001743 0.577096
vt 0.130998 0.662119
vt 0.001701 0.662102
vt 0.001563 0.942759
vt 0.08749 0.871179
vt 0.087426 1.001085
vt 0.001563 0.942759
vt 0.087426 1.001085
vt 0.001534 1.001068
vt 0.625 0.25
vt 0.625 0.0
vt 0.625 0.0
vt 0.625 0.25
vt 0.625 0.0
vt 0.625 0.25
vt 0.852564 0.5
vt 0.875 0.5
vt 0.875 0.75
vt 0.852564 0.5
vt 0.875 0.75
vt 0.852564 0.75
vt 1.00398 0.064724
vt 0.872059 0.064724
vt 0.872059 -0.00324
vt 1.00398 0.064724
vt 0.872059 -0.00324
vt 1.00398 -0.00324
vt 0.821075 0.5
vt 0.85625 0.5
vt 0.85625 0.75
vt 0.821075 0.5
vt 0.85625 0.75
vt 0.821076 0.75
vt 0.813483 0.5
vt 0.897247 0.5
vt 0.897247 0.75
vt 0.813483 0.5
vt 0.897247 0.75
vt 0.813483 0.75
vt 1.00398 0.552674
vt 0.872059 0.552674
vt 0.872059 0.43924
vt 1.00398 0.552674
vt 0.872059 0.43924
vt 1.00398 0.43924
vt 0.625 0.25
vt 0.625 0.0
vt 0.625 0.0
vt 0.625 0.25
vt 0.625 0.0
vt 0.625 0.25
vt 0.625 0.25
vt 0.625 0.0
vt 0.625 0.0
vt 0.625 0.25
vt 0.625 0.0
vt 0.625 0.25
vt 1.00398 0.903055
vt 0.872059 0.903055
vt 0.872059 0.552674
vt 1.00398 0.903055
vt 0.872059 0.552674
vt 1.00398 0.552674
vt 1.00398 0.43924
vt 0.872059 0.43924
vt 0.872059 0.064724
vt 1.00398 0.43924
vt 0.872059 0.064724
vt 1.00398 0.064724
vt 0.625 0.25
vt 0.625 0.0
vt 0.625 0.0
vt 0.625 0.25
vt 0.625 0.0
vt 0.625 0.25
vt 0.859375 0.5
vt 0.877936 0.5
vt 0.877936 0.75
vt 0.859375 0.5
vt 0.877936 0.75
vt 0.859375 0.75
vt 1.00398 1.013084
vt 0.872059 1.013084
vt 0.872059 0.903055
vt 1.00398 1.013084
vt 0.872059 0.903055
vt 1.00398 0.903055
vt 0.625 0.25
vt 0.625 0.0
vt 0.625 0.0
vt 0.625 0.25
vt 0.625 0.0
vt 0.625 0.25
vt 0.81914 0.5
vt 0.909205 0.5
vt 0.909205 0.75
vt 0.81914 0.5
vt 0.909205 0.75
vt 0.819141 0.75
vt 0.000077 0.757889
vt 0.137969 0.757889
vt 0.137969 0.999924
vt 0.000077 0.757889
vt 0.137969 0.999924
vt 0.000076 0.999924
vt 0.000075 0.761794
vt 0.129971 0.761794
vt 0.129971 0.999925
vt 0.000075 0.761794
vt 0.129971 0.999925
vt 0.000075 0.999925
vt 0.137975 0.753992
vt 0.137975 0.999914
vt 0.000086 0.999914
vt 0.137975 0.753992
vt 0.000086 0.999914
vt 0.000086 0.753992
vt 0.130279 0.999914
vt 0.000086 0.999914
vt 0.000086 0.738321
vt 0.130279 0.999914
vt 0.000086 0.738321
vt 0.130279 0.738321
vt 0.000076 0.999924
vt 0.000076 0.750076
vt 0.141875 0.750076
vt 0.000076 0.999924
vt 0.141875 0.750076
vt 0.141875 0.999924
vt 0.000075 0.999925
vt 0.000075 0.750075
vt 0.129971 0.750075
vt 0.000075 0.999925
vt 0.129971 0.750075
vt 0.129971 0.999925
vt 0.000075 0.753982
vt 0.137783 0.753982
vt 0.137783 0.999925
vt 0.000075 0.753982
vt 0.137783 0.999925
vt 0.000075 0.999925
vt 0.000077 0.761795
vt 0.145782 0.761795
vt 0.145782 0.999924
vt 0.000077 0.761795
vt 0.145782 0.999924
vt 0.000076 0.999924
vt 0.000075 0.999925
vt 0.000075 0.753981
vt 0.137784 0.753981
vt 0.000075 0.999925
vt 0.137784 0.753981
vt 0.137784 0.999925
vt 0.000076 0.999924
vt 0.000076 0.804764
vt 0.130157 0.804764
vt 0.000076 0.999924
vt 0.130157 0.804764
vt 0.130157 0.999924
vt 0.000089 0.999911
vt 0.000089 0.757901
vt 0.141101 0.757901
vt 0.000089 0.999911
vt 0.141101 0.757901
vt 0.141101 0.999911
vt 0.000089 0.999911
vt 0.000089 0.750089
vt 0.113758 0.750089
vt 0.000089 0.999911
vt 0.113758 0.750089
vt 0.113758 0.999911
vt 0.938656 0.872281
vt 1.003345 0.942642
vt 1.003288 0.998768
vt 0.938656 0.872281
vt 1.003288 0.998768
vt 0.93853 0.997188
vt 0.085661 0.815122
vt 0.430484 0.815122
vt 0.447959 0.999327
vt 0.085661 0.815122
vt 0.447959 0.999327
vt 0.085661 0.999327
vt 0.430484 0.815122
vt 0.571979 0.815122
vt 0.589454 0.999327
vt 0.430484 0.815122
vt 0.589454 0.999327
vt 0.447959 0.999327
vt 0.449762 0.518069
vt 0.555153 0.518069
vt 0.555153 0.629521
vt 0.449762 0.518069
vt 0.555153 0.629521
vt 0.449762 0.629521
vt 0.192923 0.518069
vt 0.449762 0.518069
vt 0.449762 0.629521
vt 0.192923 0.518069
vt 0.449762 0.629521
vt 0.192923 0.629521
vt 0.942043 0.557948
vt 0.9975 0.557978
vt 0.997418 0.648843
vt 0.942043 0.557948
vt 0.997418 0.648843
vt 0.94196 0.648813
vt 0.939132 0.34974
vt 0.997756 0.277311
vt 0.9975 0.557978
vt 0.939132 0.34974
vt 0.9975 0.557978
vt 0.938942 0.557948
vt 0.444195 0.312385
vt 0.560012 0.312385
vt 0.555153 0.518069
vt 0.444195 0.312385
vt 0.555153 0.518069
vt 0.449762 0.518069
vt 0.442215 0.629521
vt 0.5627 0.629521
vt 0.564979 0.808921
vt 0.442215 0.629521
vt 0.564979 0.808921
vt 0.437484 0.808921
vt 0.937309 0.648813
vt 0.997418 0.648843
vt 0.997144 0.948843
vt 0.937309 0.648813
vt 0.997144 0.948843
vt 0.937106 0.872281
vt 0.555153 0.518069
vt 0.819148 0.518069
vt 0.819148 0.629521
vt 0.555153 0.518069
vt 0.819148 0.629521
vt 0.555153 0.629521
vt 0.571979 0.815122
vt 0.938812 0.815122
vt 0.938812 0.999327
vt 0.571979 0.815122
vt 0.938812 0.999327
vt 0.589454 0.999327
vt 0.619303 -0.002236
vt 0.934627 0.003433
vt 0.936319 0.3095
vt 0.619303 -0.002236
vt 0.936319 0.3095
vt 0.599387 0.313808
vt 0.440849 -0.000516
vt 0.59196 -0.002236
vt 0.590598 0.313808
vt 0.440849 -0.000516
vt 0.590598 0.313808
vt 0.440463 0.315528
vt 0.089805 -0.000018
vt 0.440849 -0.000516
vt 0.420932 0.315528
vt 0.089805 -0.000018
vt 0.420932 0.315528
vt 0.091496 0.311907
vt 0.936116 -0.001262
vt 1.001842 -0.00204
vt 1.00277 0.167142
vt 0.936116 -0.001262
vt 1.00277 0.167142
vt 0.937808 0.215084
vt -0.000884 -0.002828
vt 0.089805 -0.000018
vt 0.091496 0.311907
vt -0.000884 -0.002828
vt 0.091496 0.311907
vt 0.000044 0.312248
vt 0.001701 0.662102
vt 0.084492 0.662119
vt 0.08439 0.871179
vt 0.001701 0.662102
vt 0.08439 0.871179
vt 0.001563 0.942759
vt 0.001872 0.314525
vt 0.176091 0.315923
vt 0.175996 0.577113
vt 0.001872 0.314525
vt 0.175996 0.577113
vt 0.001743 0.577096
vt 0.001743 0.577096
vt 0.13104 0.577113
vt 0.130998 0.662119
vt 0.001743 0.577096
vt 0.130998 0.662119
vt 0.001701 0.662102
vt 0.001563 0.942759
vt 0.08749 0.871179
vt 0.087426 1.001085
vt 0.001563 0.942759
vt 0.087426 1.001085
vt 0.001534 1.001068
vt 0.089825 0.0001
vt 0.089825 0.9999
vt 0.0001 0.9999
vt 0.089825 0.0001
vt 0.0001 0.9999
vt 0.0001 0.0001
vt 0.590679 0.0001
vt 0.59068 0.9999
vt 0.45001 0.9999
vt 0.590679 0.0001
vt 0.45001 0.9999
vt 0.45001 0.0001
vt 0.92567 0.0001
vt 0.92567 0.9999
vt 0.59068 0.9999
vt 0.92567 0.0001
vt 0.59068 0.9999
vt 0.590679 0.0001
vt 0.9999 0.0001
vt 0.9999 0.9999
vt 0.92567 0.9999
vt 0.9999 0.0001
vt 0.92567 0.9999
vt 0.92567 0.0001
vt 0.45001 0.0001
vt 0.45001 0.9999
vt 0.089825 0.9999
vt 0.45001 0.0001
vt 0.089825 0.9999
vt 0.089825 0.0001
vt 0.058617 0.418369
vt 0.93489 0.418369
vt 0.93489 0.581631
vt 0.058617 0.418369
vt 0.93489 0.581631
vt 0.058617 0.581631
vt 0.061663 0.400018
vt 0.937204 0.400018
vt 0.937204 0.599982
vt 0.061663 0.400018
vt 0.937204 0.599982
vt 0.061663 0.599982
vt 0.356439 0.5
vt 0.375 0.5
vt 0.375 0.75
vt 0.356439 0.5
vt 0.375 0.75
vt 0.356439 0.75
vt 0.147436 0.5
vt 0.2375 0.5
vt 0.2375 0.75
vt 0.147436 0.5
vt 0.2375 0.75
vt 0.147436 0.75
vt 0.2375 0.5
vt 0.272674 0.5
vt 0.272674 0.75
vt 0.2375 0.5
vt 0.272674 0.75
vt 0.2375 0.75
vt 0.272674 0.5
vt 0.356439 0.5
vt 0.356439 0.75
vt 0.272674 0.5
vt 0.356439 0.75
vt 0.272674 0.75
vt 0.125 0.5
vt 0.147436 0.5
vt 0.147436 0.75
vt 0.125 0.5
vt 0.147436 0.75
vt 0.125 0.75
vt 0.089825 0.0001
vt 0.089825 0.9999
vt 0.0001 0.9999
vt 0.089825 0.0001
vt 0.0001 0.9999
vt 0.0001 0.0001
vt 0.590679 0.0001
vt 0.59068 0.9999
vt 0.45001 0.9999
vt 0.590679 0.0001
vt 0.45001 0.9999
vt 0.45001 0.0001
vt 0.92567 0.0001
vt 0.92567 0.9999
vt 0.59068 0.9999
vt 0.92567 0.0001
vt 0.59068 0.9999
vt 0.590679 0.0001
vt 0.9999 0.0001
vt 0.9999 0.9999
vt 0.92567 0.9999
vt 0.9999 0.0001
vt 0.92567 0.9999
vt 0.92567 0.0001
vt 0.45001 0.0001
vt 0.45001 0.9999
vt 0.089825 0.9999
vt 0.45001 0.0001
vt 0.089825 0.9999
vt 0.089825 0.0001

# 516 Vertex Normals
vn 0.0 -0.0 1.0
vn 0.0 -0.0 1.0
vn 0.0 -0.0 1.0
vn 0.0 -0.0 1.0
vn 0.0 -0.0 1.0
vn 0.0 0.0 1.0
vn 0.0 -0.0 1.0
vn 0.0 0.0 1.0
vn 0.0 -0.0 1.0
vn 0.0 -0.0 1.0
vn 0.0 -0.0 1.0
vn 0.0 -0.0 1.0
vn 0.0 0.0 1.0
vn 0.0 0.0 1.0
vn 0.0 0.0 1.0
vn 0.0 0.0 1.0
vn 0.0 0.0 1.0
vn 0.0 -0.0 1.0
vn 0.0 0.0 1.0
vn 0.0 0.0 1.0
vn 0.0 0.0 1.0
vn 0.0 0.0 1.0
vn 0.0 0.0 1.0
vn 0.0 0.0 1.0
vn 0.0 -0.0 1.0
vn 0.0 0.0 1.0
vn 0.0 0.0 1.0
vn 0.0 -0.0 1.0
vn 0.0 0.0 1.0
vn 0.0 -0.0 1.0
vn 0.0 0.0 1.0
vn 0.0 -0.0 1.0
vn 0.0 -0.0 1.0
vn 0.0 0.0 1.0
vn 0.0 -0.0 1.0
vn 0.0 0.0 1.0
vn 0.0 0.0 1.0
vn 0.0 -0.0 1.0
vn 0.0 -0.0 1.0
vn 0.0 0.0 1.0
vn 0.0 -0.0 1.0
vn 0.0 0.0 1.0
vn 0.0 0.0 1.0
vn 0.0 0.0 1.0
vn 0.0 0.0 1.0
vn 0.0 0.0 1.0
vn 0.0 0.0 1.0
vn 0.0 0.0 1.0
vn 0.0 0.0 1.0
vn 0.0 0.0 1.0
vn 0.0 0.0 1.0
vn 0.0 0.0 1.0
vn 0.0 0.0 1.0
vn 0.0 0.0 1.0
vn 0.0 0.0 1.0
vn 0.0 -0.0 1.0
vn 0.0 -0.0 1.0
vn 0.0 0.0 1.0
vn 0.0 -0.0 1.0
vn 0.0 -0.0 1.0
vn 0.0 0.0 1.0
vn 0.0 0.0 1.0
vn 0.0 0.0 1.0
vn 0.0 0.0 1.0
vn 0.0 0.0 1.0
vn 0.0 0.0 1.0
vn 0.0 0.0 1.0
vn 0.0 -0.0 1.0
vn 0.0 0.0 1.0
vn 0.0 0.0 1.0
vn 0.0 0.0 1.0
vn 0.0 0.0 1.0
vn 0.0 0.0 1.0
vn 0.0 0.0 1.0
vn 0.0 0.0 1.0
vn 0.0 0.0 1.0
vn 0.0 0.0 1.0
vn 0.0 0.0 1.0
vn 0.0 -0.0 1.0
vn 0.0 0.0 1.0
vn 0.0 0.0 1.0
vn 0.0 -0.0 1.0
vn 0.0 0.0 1.0
vn 0.0 0.0 1.0
vn 0.0 -0.0 1.0
vn 0.0 -0.0 1.0
vn 0.0 0.0 1.0
vn 0.0 -0.0 1.0
vn 0.0 0.0 1.0
vn 0.0 -0.0 1.0
vn 0.0 0.0 1.0
vn 0.0 -0.0 1.0
vn 0.0 -0.0 1.0
vn 0.0 0.0 1.0
vn 0.0 -0.0 1.0
vn 0.0 0.0 1.0
vn 0.0 -0.0 1.0
vn 0.0 -0.0 1.0
vn 0.0 -0.0 1.0
vn 0.0 -0.0 1.0
vn 0.0 -0.0 1.0
vn 0.0 -0.0 1.0
vn 0.0 -0.0 1.0
vn 0.0 -0.0 1.0
vn 0.0 -0.0 1.0
vn 0.0 -0.0 1.0
vn 0.0 -0.0 1.0
vn 0.0 -0.0 1.0
vn 0.0 -0.0 1.0
vn 0.0 -0.0 1.0
vn 0.0 -0.0 1.0
vn 0.0 -0.0 1.0
vn 0.0 -0.0 1.0
vn 0.0 -0.0 1.0
vn 0.0 -0.0 1.0
vn 0.0 -0.0 1.0
vn 0.0 -0.0 1.0
vn 0.0 -0.0 1.0
vn 0.0 -0.0 1.0
vn 0.0 -0.0 1.0
vn 0.0 -0.0 1.0
vn 0.0 -0.0 1.0
vn 0.0 -0.0 1.0
vn 0.0 -0.0 1.0
vn 0.0 -0.0 1.0
vn 0.0 -0.0 1.0
vn -1.0 0.0 0.0
vn -1.0 0.0 0.0
vn -1.0 0.0 0.0
vn -1.0 0.0 0.0
vn -1.0 0.0 0.0
vn -1.0 0.0 0.0
vn 0.0 1.0 0.0
vn 0.0 1.0 0.0
vn 0.0 1.0 0.0
vn 0.0 1.0 0.0
vn 0.0 1.0 0.0
vn 0.0 1.0 0.0
vn 1.0 0.0 0.0
vn 1.0 0.0 0.0
vn 1.0 0.0 0.0
vn 1.0 0.0 0.0
vn 1.0 0.0 0.0
vn 1.0 0.0 0.0
vn 0.0 1.0 0.0
vn 0.0 1.0 0.0
vn 0.0 1.0 0.0
vn 0.0 1.0 0.0
vn 0.0 1.0 0.0
vn 0.0 1.0 0.0
vn 0.0 1.0 0.0
vn 0.0 1.0 0.0
vn 0.0 1.0 0.0
vn 0.0 1.0 0.0
vn 0.0 1.0 0.0
vn 0.0 1.0 0.0
vn 1.0 0.0 0.0
vn 1.0 0.0 0.0
vn 1.0 0.0 0.0
vn 1.0 0.0 0.0
vn 1.0 0.0 0.0
vn 1.0 0.0 0.0
vn -1.0 0.0 0.0
vn -1.0 0.0 0.0
vn -1.0 0.0 0.0
vn -1.0 0.0 0.0
vn -1.0 0.0 0.0
vn -1.0 0.0 0.0
vn -1.0 0.0 0.0
vn -1.0 0.0 0.0
vn -1.0 0.0 0.0
vn -1.0 0.0 0.0
vn -1.0 0.0 0.0
vn -1.0 0.0 0.0
vn 1.0 0.0 0.0
vn 1.0 0.0 0.0
vn 1.0 0.0 0.0
vn 1.0 0.0 0.0
vn 1.0 0.0 0.0
vn 1.0 0.0 0.0
vn 1.0 0.0 0.0
vn 1.0 0.0 0.0
vn 1.0 0.0 0.0
vn 1.0 0.0 0.0
vn 1.0 0.0 0.0
vn 1.0 0.0 0.0
vn -1.0 0.0 0.0
vn -1.0 0.0 0.0
vn -1.0 0.0 0.0
vn -1.0 0.0 0.0
vn -1.0 0.0 0.0
vn -1.0 0.0 0.0
vn 0.0 1.0 0.0
vn 0.0 1.0 0.0
vn 0.0 1.0 0.0
vn 0.0 1.0 0.0
vn 0.0 1.0 0.0
vn 0.0 1.0 0.0
vn 1.0 0.0 0.0
vn 1.0 0.0 0.0
vn 1.0 0.0 0.0
vn 1.0 0.0 0.0
vn 1.0 0.0 0.0
vn 1.0 0.0 0.0
vn -1.0 0.0 0.0
vn -1.0 0.0 0.0
vn -1.0 0.0 0.0
vn -1.0 0.0 0.0
vn -1.0 0.0 0.0
vn -1.0 0.0 0.0
vn 0.0 1.0 0.0
vn 0.0 1.0 0.0
vn 0.0 1.0 0.0
vn 0.0 1.0 0.0
vn 0.0 1.0 0.0
vn 0.0 1.0 0.0
vn -0.0 1.0 0.0
vn -0.0 1.0 0.0
vn -0.0 1.0 0.0
vn -0.0 1.0 0.0
vn -0.0 1.0 0.0
vn -0.0 1.0 0.0
vn 0.0 1.0 0.0
vn 0.0 1.0 0.0
vn 0.0 1.0 0.0
vn 0.0 1.0 0.0
vn 0.0 1.0 0.0
vn 0.0 1.0 0.0
vn -1.0 0.0 -0.0
vn -1.0 0.0 -0.0
vn -1.0 0.0 -0.0
vn -1.0 0.0 -0.0
vn -1.0 0.0 -0.0
vn -1.0 0.0 -0.0
vn -1.0 0.0 0.0
vn -1.0 0.0 -0.0
vn -1.0 0.0 0.0
vn -1.0 0.0 0.0
vn -1.0 0.0 0.0
vn -1.0 0.0 0.0
vn 0.0 -1.0 0.0
vn -0.0 -1.0 0.0
vn 0.0 -1.0 0.0
vn 0.0 -1.0 0.0
vn 0.0 -1.0 0.0
vn 0.0 -1.0 0.0
vn 0.0 -1.0 0.0
vn 0.0 -1.0 0.0
vn 0.0 -1.0 0.0
vn 0.0 -1.0 0.0
vn 0.0 -1.0 0.0
vn -0.0 -1.0 0.0
vn -0.0 1.0 0.0
vn -0.0 1.0 0.0
vn -0.0 1.0 0.0
vn -0.0 1.0 0.0
vn -0.0 1.0 0.0
vn -0.0 1.0 0.0
vn 0.0 1.0 0.0
vn 0.0 1.0 0.0
vn 0.0 1.0 0.0
vn 0.0 1.0 0.0
vn 0.0 1.0 0.0
vn 0.0 1.0 0.0
vn 0.0 -1.0 0.0
vn -0.0 -1.0 0.0
vn 0.0 -1.0 0.0
vn 0.0 -1.0 0.0
vn 0.0 -1.0 0.0
vn 0.0 -1.0 0.0
vn 0.0 -1.0 0.0
vn 0.0 -1.0 0.0
vn 0.0 -1.0 0.0
vn 0.0 -1.0 0.0
vn 0.0 -1.0 0.0
vn -0.0 -1.0 0.0
vn -1.0 0.0 0.0
vn -1.0 0.0 0.0
vn -1.0 0.0 0.0
vn -1.0 0.0 0.0
vn -1.0 0.0 0.0
vn -1.0 0.0 0.0
vn -1.0 0.0 0.0
vn -1.0 0.0 0.0
vn -1.0 0.0 0.0
vn -1.0 0.0 0.0
vn -1.0 0.0 0.0
vn -1.0 0.0 0.0
vn 0.0 -0.0 1.0
vn 0.0 0.0 1.0
vn 0.0 0.0 1.0
vn 0.0 -0.0 1.0
vn 0.0 0.0 1.0
vn 0.0 -0.0 1.0
vn 0.0 -0.0 1.0
vn 0.0 0.0 1.0
vn 0.0 0.0 1.0
vn 0.0 -0.0 1.0
vn 0.0 0.0 1.0
vn 0.0 -0.0 1.0
vn 0.0 0.0 1.0
vn 0.0 -0.0 1.0
vn 0.0 0.0 1.0
vn 0.0 0.0 1.0
vn 0.0 0.0 1.0
vn 0.0 0.0 1.0
vn 0.0 0.0 1.0
vn 0.0 -0.0 1.0
vn 0.0 -0.0 1.0
vn 0.0 0.0 1.0
vn 0.0 -0.0 1.0
vn 0.0 0.0 1.0
vn 0.0 0.0 1.0
vn 0.0 0.0 1.0
vn 0.0 0.0 1.0
vn 0.0 0.0 1.0
vn 0.0 0.0 1.0
vn 0.0 0.0 1.0
vn 0.0 -0.0 1.0
vn 0.0 0.0 1.0
vn 0.0 0.0 1.0
vn 0.0 -0.0 1.0
vn 0.0 0.0 1.0
vn 0.0 -0.0 1.0
vn 0.0 -0.0 1.0
vn 0.0 0.0 1.0
vn 0.0 0.0 1.0
vn 0.0 -0.0 1.0
vn 0.0 0.0 1.0
vn 0.0 -0.0 1.0
vn 0.0 -0.0 1.0
vn 0.0 -0.0 1.0
vn 0.0 -0.0 1.0
vn 0.0 -0.0 1.0
vn 0.0 -0.0 1.0
vn 0.0 0.0 1.0
vn 0.0 0.0 1.0
vn 0.0 -0.0 1.0
vn 0.0 -0.0 1.0
vn 0.0 0.0 1.0
vn 0.0 -0.0 1.0
vn 0.0 0.0 1.0
vn 0.0 -0.0 1.0
vn 0.0 0.0 1.0
vn 0.0 0.0 1.0
vn 0.0 -0.0 1.0
vn 0.0 0.0 1.0
vn 0.0 -0.0 1.0
vn 0.0 -0.0 1.0
vn 0.0 -0.0 1.0
vn 0.0 -0.0 1.0
vn 0.0 -0.0 1.0
vn 0.0 -0.0 1.0
vn 0.0 -0.0 1.0
vn 0.0 -0.0 1.0
vn 0.0 -0.0 1.0
vn 0.0 -0.0 1.0
vn 0.0 -0.0 1.0
vn 0.0 -0.0 1.0
vn 0.0 0.0 1.0
vn 0.0 -0.0 1.0
vn 0.0 -0.0 1.0
vn 0.0 -0.0 1.0
vn 0.0 -0.0 1.0
vn 0.0 -0.0 1.0
vn 0.0 -0.0 1.0
vn 0.0 -0.0 1.0
vn 0.0 -0.0 1.0
vn 0.0 -0.0 1.0
vn 0.0 -0.0 1.0
vn 0.0 -0.0 1.0
vn 0.0 -0.0 1.0
vn 0.0 -0.0 1.0
vn 0.0 -0.0 1.0
vn 0.0 -0.0 1.0
vn 0.0 -0.0 1.0
vn 0.0 -0.0 1.0
vn 0.0 0.0 1.0
vn 0.0 -0.0 1.0
vn 0.0 0.0 1.0
vn 0.0 0.0 1.0
vn 0.0 -0.0 1.0
vn 0.0 0.0 1.0
vn 0.0 -0.0 1.0
vn 0.0 0.0 1.0
vn 0.0 -0.0 1.0
vn 0.0 0.0 1.0
vn 0.0 0.0 1.0
vn 0.0 0.0 1.0
vn 0.0 0.0 1.0
vn 0.0 0.0 1.0
vn 0.0 0.0 1.0
vn 0.0 -0.0 1.0
vn 0.0 0.0 1.0
vn 0.0 -0.0 1.0
vn 0.0 0.0 1.0
vn 0.0 0.0 1.0
vn 0.0 0.0 1.0
vn 0.0 0.0 1.0
vn 0.0 0.0 1.0
vn 0.0 0.0 1.0
vn 0.0 0.0 1.0
vn 0.0 0.0 1.0
vn 0.0 0.0 1.0
vn 0.0 0.0 1.0
vn 0.0 0.0 1.0
vn 0.0 0.0 1.0
vn 0.0 0.0 1.0
vn 0.0 0.0 1.0
vn 0.0 -0.0 1.0
vn 0.0 -0.0 1.0
vn 0.0 0.0 1.0
vn 0.0 -0.0 1.0
vn 0.0 0.0 1.0
vn 0.0 0.0 1.0
vn 0.0 -0.0 1.0
vn 0.0 -0.0 1.0
vn 0.0 0.0 1.0
vn 0.0 -0.0 1.0
vn 0.0 0.0 1.0
vn 0.0 -0.0 1.0
vn 0.0 0.0 1.0
vn 0.0 -0.0 1.0
vn 0.0 -0.0 1.0
vn 0.0 -0.0 1.0
vn 0.0 0.0 1.0
vn 0.0 -0.0 1.0
vn 0.0 0.0 1.0
vn 0.0 0.0 1.0
vn 0.0 -0.0 1.0
vn 0.0 0.0 1.0
vn 0.0 -0.0 1.0
vn 0.0 0.0 1.0
vn 0.0 -0.0 1.0
vn 0.0 0.0 1.0
vn 0.0 0.0 1.0
vn 0.0 0.0 1.0
vn 0.0 -0.0 1.0
vn 0.0 0.0 1.0
vn 0.0 -0.0 1.0
vn 0.0 -0.0 1.0
vn 0.0 0.0 1.0
vn 0.0 -0.0 1.0
vn 0.0 0.0 1.0
vn -1.0 0.0 0.0
vn -1.0 0.0 0.0
vn -1.0 0.0 0.0
vn -1.0 0.0 0.0
vn -1.0 0.0 0.0
vn -1.0 0.0 0.0
vn 1.0 0.0 0.0
vn 1.0 0.0 0.0
vn 1.0 0.0 0.0
vn 1.0 0.0 0.0
vn 1.0 0.0 0.0
vn 1.0 0.0 0.0
vn 0.0 -1.0 0.0
vn 0.0 -1.0 0.0
vn 0.0 -1.0 0.0
vn 0.0 -1.0 0.0
vn 0.0 -1.0 0.0
vn 0.0 -1.0 0.0
vn 0.0 -1.0 0.0
vn 0.0 -1.0 0.0
vn 0.0 -1.0 0.0
vn 0.0 -1.0 0.0
vn 0.0 -1.0 0.0
vn 0.0 -1.0 0.0
vn 0.0 -1.0 0.0
vn 0.0 -1.0 0.0
vn 0.0 -1.0 0.0
vn 0.0 -1.0 0.0
vn 0.0 -1.0 0.0
vn 0.0 -1.0 0.0
vn 0.0 -1.0 0.0
vn 0.0 -1.0 0.0
vn 0.0 -1.0 0.0
vn 0.0 -1.0 0.0
vn 0.0 -1.0 0.0
vn 0.0 -1.0 0.0
vn 0.0 -1.0 0.0
vn 0.0 -1.0 0.0
vn 0.0 -1.0 0.0
vn 0.0 -1.0 0.0
vn 0.0 -1.0 0.0
vn 0.0 -1.0 0.0
vn 0.0 0.0 1.0
vn 0.0 -0.0 1.0
vn 0.0 0.0 1.0
vn 0.0 0.0 1.0
vn 0.0 0.0 1.0
vn 0.0 0.0 1.0
vn 0.0 -0.0 1.0
vn 0.0 -0.0 1.0
vn 0.0 -0.0 1.0
vn 0.0 -0.0 1.0
vn 0.0 -0.0 1.0
vn 0.0 0.0 1.0
vn 0.0 0.0 1.0
vn 0.0 -0.0 1.0
vn 0.0 -0.0 1.0
vn 0.0 0.0 1.0
vn 0.0 -0.0 1.0
vn 0.0 -0.0 1.0
vn 0.0 0.0 1.0
vn 0.0 0.0 1.0
vn 0.0 -0.0 1.0
vn 0.0 0.0 1.0
vn 0.0 -0.0 1.0
vn 0.0 0.0 1.0
vn 0.0 0.0 1.0
vn 0.0 -0.0 1.0
vn 0.0 -0.0 1.0
vn 0.0 0.0 1.0
vn 0.0 -0.0 1.0
vn 0.0 0.0 1.0

# top, 138 grouped triangles

usemtl top
o top
g top

f 30/1/1 22/2/2 6/3/3
f 30/4/4 6/5/5 27/6/6
f 41/7/7 23/8/8 9/9/9
f 41/10/10 9/11/11 37/12/12
f 23/13/13 24/14/14 12/15/15
f 23/16/16 12/17/17 9/18/18
f 19/19/19 20/20/20 16/21/21
f 19/22/22 16/23/23 15/24/24
f 40/25/25 19/26/26 15/27/27
f 40/28/28 15/29/29 39/30/30
f 29/31/31 18/32/32 14/33/33
f 29/34/34 14/35/35 28/36/36
f 35/37/37 32/38/38 18/39/39
f 35/40/40 18/41/41 29/42/42
f 33/43/43 34/44/44 20/45/45
f 33/46/46 20/47/47 19/48/48
f 15/49/49 16/50/50 24/51/51
f 15/52/52 24/53/53 23/54/54
f 28/55/55 14/56/56 22/57/57
f 28/58/58 22/59/59 30/60/60
f 20/61/61 29/62/62 28/63/63
f 20/64/64 28/65/65 16/66/66
f 24/67/67 30/68/68 27/69/69
f 24/70/70 27/71/71 12/72/72
f 11/73/73 26/74/74 35/75/75
f 11/76/76 35/77/77 34/78/78
f 8/79/79 11/80/80 34/81/81
f 8/82/82 34/83/83 33/84/84
f 36/85/85 8/86/86 33/87/87
f 36/88/88 33/89/89 42/90/90
f 26/91/91 4/92/92 32/93/93
f 26/94/94 32/95/95 35/96/96
f 2/97/97 36/98/98 42/99/99
f 2/100/100 42/101/101 31/102/102
f 13/103/103 39/104/104 41/105/105
f 13/106/106 41/107/107 21/108/108
f 31/109/109 42/110/110 40/111/111
f 31/112/112 40/113/113 17/114/114
f 17/115/115 40/116/116 39/117/117
f 17/118/118 39/119/119 13/120/120
f 21/121/121 41/122/122 37/123/123
f 21/124/124 37/125/125 5/126/126
f 85/127/127 79/128/128 51/129/129
f 85/130/130 51/131/131 52/132/132
f 110/133/133 52/134/134 51/135/135
f 110/136/136 51/137/137 108/138/138
f 80/139/139 86/140/140 53/141/141
f 80/142/142 53/143/143 54/144/144
f 60/145/145 57/146/146 58/147/147
f 60/148/148 58/149/149 62/150/150
f 88/151/151 60/152/152 62/153/153
f 88/154/154 62/155/155 90/156/156
f 74/157/157 72/158/158 66/159/159
f 74/160/160 66/161/161 65/162/162
f 71/163/163 73/164/164 63/165/165
f 71/166/166 63/167/167 64/168/168
f 97/169/169 99/170/170 73/171/171
f 97/172/172 73/173/173 71/174/174
f 100/175/175 98/176/176 72/177/177
f 100/178/178 72/179/179 74/180/180
f 65/181/181 66/182/182 86/183/183
f 65/184/184 86/185/185 80/186/186
f 64/187/187 63/188/188 79/189/189
f 64/190/190 79/191/191 85/192/192
f 53/193/193 88/194/194 90/195/195
f 53/196/196 90/197/197 54/198/198
f 48/199/199 50/200/200 98/201/201
f 48/202/202 98/203/203 100/204/204
f 46/205/205 44/206/206 99/207/207
f 46/208/208 99/209/209 97/210/210
f 57/211/211 110/212/212 108/213/213
f 57/214/214 108/215/215 58/216/216
f 112/217/217 111/218/218 68/219/219
f 112/220/220 68/221/221 67/222/222
f 92/223/223 91/224/224 69/225/225
f 92/226/226 69/227/227 70/228/228
f 81/229/229 67/230/230 68/231/231
f 81/232/232 68/233/233 82/234/234
f 96/235/235 95/236/236 91/237/237
f 96/238/238 91/239/239 92/240/240
f 116/241/241 81/242/242 82/243/243
f 116/244/244 82/245/245 115/246/246
f 96/247/247 84/248/248 83/249/249
f 96/250/250 83/251/251 95/252/252
f 106/253/253 105/254/254 103/255/255
f 106/256/256 103/257/257 104/258/258
f 118/259/259 117/260/260 102/261/261
f 118/262/262 102/263/263 101/264/264
f 93/265/265 78/266/266 77/267/267
f 93/268/268 77/269/269 94/270/270
f 113/271/271 75/272/272 76/273/273
f 113/274/274 76/275/275 114/276/276
f 94/277/277 105/278/278 106/279/279
f 94/280/280 106/281/281 93/282/282
f 75/283/283 101/284/284 102/285/285
f 75/286/286 102/287/287 76/288/288
f 148/289/289 140/290/290 124/291/291
f 148/292/292 124/293/293 145/294/294
f 159/295/295 141/296/296 127/297/297
f 159/298/298 127/299/299 155/300/300
f 141/301/301 142/302/302 130/303/303
f 141/304/304 130/305/305 127/306/306
f 137/307/307 138/308/308 134/309/309
f 137/310/310 134/311/311 133/312/312
f 158/313/313 137/314/314 133/315/315
f 158/316/316 133/317/317 157/318/318
f 147/319/319 136/320/320 132/321/321
f 147/322/322 132/323/323 146/324/324
f 153/325/325 150/326/326 136/327/327
f 153/328/328 136/329/329 147/330/330
f 151/331/331 152/332/332 138/333/333
f 151/334/334 138/335/335 137/336/336
f 133/337/337 134/338/338 142/339/339
f 133/340/340 142/341/341 141/342/342
f 146/343/343 132/344/344 140/345/345
f 146/346/346 140/347/347 148/348/348
f 138/349/349 147/350/350 146/351/351
f 138/352/352 146/353/353 134/354/354
f 142/355/355 148/356/356 145/357/357
f 142/358/358 145/359/359 130/360/360
f 129/361/361 144/362/362 153/363/363
f 129/364/364 153/365/365 152/366/366
f 126/367/367 129/368/368 152/369/369
f 126/370/370 152/371/371 151/372/372
f 154/373/373 126/374/374 151/375/375
f 154/376/376 151/377/377 160/378/378
f 144/379/379 122/380/380 150/381/381
f 144/382/382 150/383/383 153/384/384
f 120/385/385 154/386/386 160/387/387
f 120/388/388 160/389/389 149/390/390
f 131/391/391 157/392/392 159/393/393
f 131/394/394 159/395/395 139/396/396
f 149/397/397 160/398/398 158/399/399
f 149/400/400 158/401/401 135/402/402
f 135/403/403 158/404/404 157/405/405
f 135/406/406 157/407/407 131/408/408
f 139/409/409 159/410/410 155/411/411
f 139/412/412 155/413/413 123/414/414
# bottom, 34 grouped triangles

usemtl bottom
o bottom
g bottom

f 38/415/415 36/416/416 2/417/417
f 38/418/418 2/419/419 1/420/420
f 10/421/421 11/422/422 8/423/423
f 10/424/424 8/425/425 7/426/426
f 25/427/427 26/428/428 11/429/429
f 25/430/430 11/431/431 10/432/432
f 3/433/433 4/434/434 26/435/435
f 3/436/436 26/437/437 25/438/438
f 7/439/439 8/440/440 36/441/441
f 7/442/442 36/443/443 38/444/444
f 43/445/445 44/446/446 46/447/447
f 43/448/448 46/449/449 45/450/450
f 49/451/451 50/452/452 48/453/453
f 49/454/454 48/455/455 47/456/456
f 89/457/457 49/458/458 47/459/459
f 89/460/460 47/461/461 87/462/462
f 107/463/463 55/464/464 56/465/465
f 107/466/466 56/467/467 109/468/468
f 55/469/469 61/470/470 59/471/471
f 55/472/472 59/473/473 56/474/474
f 61/475/475 89/476/476 87/477/477
f 61/478/478 87/479/479 59/480/480
f 45/481/481 107/482/482 109/483/483
f 45/484/484 109/485/485 43/486/486
f 156/487/487 154/488/488 120/489/489
f 156/490/490 120/491/491 119/492/492
f 128/493/493 129/494/494 126/495/495
f 128/496/496 126/497/497 125/498/498
f 143/499/499 144/500/500 129/501/501
f 143/502/502 129/503/503 128/504/504
f 121/505/505 122/506/506 144/507/507
f 121/508/508 144/509/509 143/510/510
f 125/511/511 126/512/512 154/513/513
f 125/514/514 154/515/515 156/516/516
