# Converted from model.gltf; joint-local geometry, engine +Y forward.
v -0.18750000 0.43750000 -0.25000000
v -0.56250000 0.43750000 -0.25000000
v -0.18750000 -0.06250000 -0.25000000
v -0.56250000 -0.06250000 -0.25000000
v -0.56250000 0.43750000 0.18750000
v -0.18750000 0.43750000 0.18750000
v -0.56250000 -0.06250000 0.18750000
v -0.18750000 -0.06250000 0.18750000
v -0.56250000 0.43750000 0.18750000
v -0.56250000 0.43750000 -0.25000000
v -0.18750000 0.43750000 0.18750000
v -0.18750000 0.43750000 -0.25000000
v -0.18750000 -0.06250000 0.18750000
v -0.18750000 -0.06250000 -0.25000000
v -0.56250000 -0.06250000 0.18750000
v -0.56250000 -0.06250000 -0.25000000
v -0.18750000 0.43750000 0.18750000
v -0.18750000 0.43750000 -0.25000000
v -0.18750000 -0.06250000 0.18750000
v -0.18750000 -0.06250000 -0.25000000
v -0.56250000 0.43750000 -0.25000000
v -0.56250000 0.43750000 0.18750000
v -0.56250000 -0.06250000 -0.25000000
v -0.56250000 -0.06250000 0.18750000
v 0.49574196 0.37470293 -0.25000000
v -0.18914190 0.43462253 -0.25000000
v 0.45216411 -0.12339437 -0.25000000
v -0.23271976 -0.06347480 -0.25000000
v -0.18914190 0.43462253 0.18750000
v 0.49574196 0.37470293 0.18750000
v -0.23271976 -0.06347480 0.18750000
v 0.45216411 -0.12339437 0.18750000
v -0.18914190 0.43462253 0.18750000
v -0.18914190 0.43462253 -0.25000000
v 0.49574196 0.37470293 0.18750000
v 0.49574196 0.37470293 -0.25000000
v 0.45216411 -0.12339437 0.18750000
v 0.45216411 -0.12339437 -0.25000000
v -0.23271976 -0.06347480 0.18750000
v -0.23271976 -0.06347480 -0.25000000
v 0.49574196 0.37470293 0.18750000
v 0.49574196 0.37470293 -0.25000000
v 0.45216411 -0.12339437 0.18750000
v 0.45216411 -0.12339437 -0.25000000
v -0.18914190 0.43462253 -0.25000000
v -0.18914190 0.43462253 0.18750000
v -0.23271976 -0.06347480 -0.25000000
v -0.23271976 -0.06347480 0.18750000
v -0.64674759 0.76262271 -0.12500000
v -0.86850029 0.64718556 -0.12500000
v -0.47359186 0.42999375 -0.12500000
v -0.69534457 0.31455660 -0.12500000
v -0.86850029 0.64718556 0.06250000
v -0.64674759 0.76262271 0.06250000
v -0.69534457 0.31455660 0.06250000
v -0.47359186 0.42999375 0.06250000
v -0.86850029 0.64718556 0.06250000
v -0.86850029 0.64718556 -0.12500000
v -0.64674759 0.76262271 0.06250000
v -0.64674759 0.76262271 -0.12500000
v -0.47359186 0.42999375 0.06250000
v -0.47359186 0.42999375 -0.12500000
v -0.69534457 0.31455660 0.06250000
v -0.69534457 0.31455660 -0.12500000
v -0.64674759 0.76262271 0.06250000
v -0.64674759 0.76262271 -0.12500000
v -0.47359186 0.42999375 0.06250000
v -0.47359186 0.42999375 -0.12500000
v -0.86850029 0.64718556 -0.12500000
v -0.86850029 0.64718556 0.06250000
v -0.69534457 0.31455660 -0.12500000
v -0.69534457 0.31455660 0.06250000
v -0.51480347 0.55434299 -0.18750000
v -0.70504141 0.30642003 -0.18750000
v -0.36604971 0.44020021 -0.18750000
v -0.55628765 0.19227725 -0.18750000
v -0.70504141 0.30642003 0.12500000
v -0.51480347 0.55434299 0.12500000
v -0.55628765 0.19227725 0.12500000
v -0.36604971 0.44020021 0.12500000
v -0.70504141 0.30642003 0.12500000
v -0.70504141 0.30642003 -0.18750000
v -0.51480347 0.55434299 0.12500000
v -0.51480347 0.55434299 -0.18750000
v -0.36604971 0.44020021 0.12500000
v -0.36604971 0.44020021 -0.18750000
v -0.55628765 0.19227725 0.12500000
v -0.55628765 0.19227725 -0.18750000
v -0.51480347 0.55434299 0.12500000
v -0.51480347 0.55434299 -0.18750000
v -0.36604971 0.44020021 0.12500000
v -0.36604971 0.44020021 -0.18750000
v -0.70504141 0.30642003 -0.18750000
v -0.70504141 0.30642003 0.12500000
v -0.55628765 0.19227725 -0.18750000
v -0.55628765 0.19227725 0.12500000
v -0.63441706 0.66246665 -0.15625000
v -0.87589854 0.59776187 -0.15625000
v -0.50500757 0.17950380 -0.15625000
v -0.74648899 0.11479902 -0.15625000
v -0.87589854 0.59776187 0.09375000
v -0.63441706 0.66246665 0.09375000
v -0.74648899 0.11479902 0.09375000
v -0.50500757 0.17950380 0.09375000
v -0.87589854 0.59776187 0.09375000
v -0.87589854 0.59776187 -0.15625000
v -0.63441706 0.66246665 0.09375000
v -0.63441706 0.66246665 -0.15625000
v -0.50500757 0.17950380 0.09375000
v -0.50500757 0.17950380 -0.15625000
v -0.74648899 0.11479902 0.09375000
v -0.74648899 0.11479902 -0.15625000
v -0.63441706 0.66246665 0.09375000
v -0.63441706 0.66246665 -0.15625000
v -0.50500757 0.17950380 0.09375000
v -0.50500757 0.17950380 -0.15625000
v -0.87589854 0.59776187 -0.15625000
v -0.87589854 0.59776187 0.09375000
v -0.74648899 0.11479902 -0.15625000
v -0.74648899 0.11479902 0.09375000
v 0.53358549 0.35148358 -0.12500000
v 0.41612387 0.30873102 -0.12500000
v 0.61909050 0.11656034 -0.12500000
v 0.50162888 0.07380784 -0.12500000
v 0.41612387 0.30873102 0.06250000
v 0.53358549 0.35148358 0.06250000
v 0.50162888 0.07380784 0.06250000
v 0.61909050 0.11656034 0.06250000
v 0.41612387 0.30873102 0.06250000
v 0.41612387 0.30873102 -0.12500000
v 0.53358549 0.35148358 0.06250000
v 0.53358549 0.35148358 -0.12500000
v 0.61909050 0.11656034 0.06250000
v 0.61909050 0.11656034 -0.12500000
v 0.50162888 0.07380784 0.06250000
v 0.50162888 0.07380784 -0.12500000
v 0.53358549 0.35148358 0.06250000
v 0.53358549 0.35148358 -0.12500000
v 0.61909050 0.11656034 0.06250000
v 0.61909050 0.11656034 -0.12500000
v 0.41612387 0.30873102 -0.12500000
v 0.41612387 0.30873102 0.06250000
v 0.50162888 0.07380784 -0.12500000
v 0.50162888 0.07380784 0.06250000
vt 0.00024414 0.39086914
vt 0.09350586 0.39086914
vt 0.00024414 0.51538086
vt 0.09350586 0.51538086
vt 0.20336914 0.39086914
vt 0.29663086 0.39086914
vt 0.20336914 0.51538086
vt 0.29663086 0.51538086
vt 0.20288086 0.39038086
vt 0.09399414 0.39038086
vt 0.20288086 0.29711914
vt 0.09399414 0.29711914
vt 0.31225586 0.29711914
vt 0.20336914 0.29711914
vt 0.31225586 0.39038086
vt 0.20336914 0.39038086
vt 0.29711914 0.39086914
vt 0.40600586 0.39086914
vt 0.29711914 0.51538086
vt 0.40600586 0.51538086
vt 0.09399414 0.39086914
vt 0.20288086 0.39086914
vt 0.09399414 0.51538086
vt 0.20288086 0.51538086
vt 0.00024414 0.17211914
vt 0.17163086 0.17211914
vt 0.00024414 0.29663086
vt 0.17163086 0.29663086
vt 0.28149414 0.17211914
vt 0.45288086 0.17211914
vt 0.28149414 0.29663086
vt 0.45288086 0.29663086
vt 0.28100586 0.17163086
vt 0.17211914 0.17163086
vt 0.28100586 0.00024414
vt 0.17211914 0.00024414
vt 0.39038086 0.00024414
vt 0.28149414 0.00024414
vt 0.39038086 0.17163086
vt 0.28149414 0.17163086
vt 0.45336914 0.17211914
vt 0.56225586 0.17211914
vt 0.45336914 0.29663086
vt 0.56225586 0.29663086
vt 0.17211914 0.17211914
vt 0.28100586 0.17211914
vt 0.17211914 0.29663086
vt 0.28100586 0.29663086
vt 0.25024414 0.59399414
vt 0.31225586 0.59399414
vt 0.25024414 0.68725586
vt 0.31225586 0.68725586
vt 0.35961914 0.59399414
vt 0.42163086 0.59399414
vt 0.35961914 0.68725586
vt 0.42163086 0.68725586
vt 0.35913086 0.59350586
vt 0.31274414 0.59350586
vt 0.35913086 0.53149414
vt 0.31274414 0.53149414
vt 0.40600586 0.53149414
vt 0.35961914 0.53149414
vt 0.40600586 0.59350586
vt 0.35961914 0.59350586
vt 0.42211914 0.59399414
vt 0.46850586 0.59399414
vt 0.42211914 0.68725586
vt 0.46850586 0.68725586
vt 0.31274414 0.59399414
vt 0.35913086 0.59399414
vt 0.31274414 0.68725586
vt 0.35913086 0.68725586
vt 0.48461914 0.29711914
vt 0.56225586 0.29711914
vt 0.48461914 0.34350586
vt 0.56225586 0.34350586
vt 0.64086914 0.29711914
vt 0.71850586 0.29711914
vt 0.64086914 0.34350586
vt 0.71850586 0.34350586
vt 0.64038086 0.29663086
vt 0.56274414 0.29663086
vt 0.64038086 0.21899414
vt 0.56274414 0.21899414
vt 0.71850586 0.21899414
vt 0.64086914 0.21899414
vt 0.71850586 0.29663086
vt 0.64086914 0.29663086
vt 0.71899414 0.29711914
vt 0.79663086 0.29711914
vt 0.71899414 0.34350586
vt 0.79663086 0.34350586
vt 0.56274414 0.29711914
vt 0.64038086 0.29711914
vt 0.56274414 0.34350586
vt 0.64038086 0.34350586
vt 0.40649414 0.46899414
vt 0.46850586 0.46899414
vt 0.40649414 0.59350586
vt 0.46850586 0.59350586
vt 0.53149414 0.46899414
vt 0.59350586 0.46899414
vt 0.53149414 0.59350586
vt 0.59350586 0.59350586
vt 0.53100586 0.46850586
vt 0.46899414 0.46850586
vt 0.53100586 0.40649414
vt 0.46899414 0.40649414
vt 0.59350586 0.40649414
vt 0.53149414 0.40649414
vt 0.59350586 0.46850586
vt 0.53149414 0.46850586
vt 0.59399414 0.46899414
vt 0.65600586 0.46899414
vt 0.59399414 0.59350586
vt 0.65600586 0.59350586
vt 0.46899414 0.46899414
vt 0.53100586 0.46899414
vt 0.46899414 0.59350586
vt 0.53100586 0.59350586
vt 0.31274414 0.32836914
vt 0.34350586 0.32836914
vt 0.31274414 0.39038086
vt 0.34350586 0.39038086
vt 0.39086914 0.32836914
vt 0.42163086 0.32836914
vt 0.39086914 0.39038086
vt 0.42163086 0.39038086
vt 0.39038086 0.32788086
vt 0.34399414 0.32788086
vt 0.39038086 0.29711914
vt 0.34399414 0.29711914
vt 0.43725586 0.29711914
vt 0.39086914 0.29711914
vt 0.43725586 0.32788086
vt 0.39086914 0.32788086
vt 0.42211914 0.32836914
vt 0.46850586 0.32836914
vt 0.42211914 0.39038086
vt 0.46850586 0.39038086
vt 0.34399414 0.32836914
vt 0.39038086 0.32836914
vt 0.34399414 0.39038086
vt 0.39038086 0.39038086
vn 0.00000000 0.00000000 -1.00000000
vn 0.00000000 0.00000000 -1.00000000
vn 0.00000000 0.00000000 -1.00000000
vn 0.00000000 0.00000000 -1.00000000
vn 0.00000000 0.00000000 1.00000000
vn 0.00000000 0.00000000 1.00000000
vn 0.00000000 0.00000000 1.00000000
vn 0.00000000 0.00000000 1.00000000
vn 0.00000000 1.00000000 -0.00000000
vn 0.00000000 1.00000000 -0.00000000
vn 0.00000000 1.00000000 -0.00000000
vn 0.00000000 1.00000000 -0.00000000
vn 0.00000000 -1.00000000 -0.00000000
vn 0.00000000 -1.00000000 -0.00000000
vn 0.00000000 -1.00000000 -0.00000000
vn 0.00000000 -1.00000000 -0.00000000
vn 1.00000000 0.00000000 -0.00000000
vn 1.00000000 0.00000000 -0.00000000
vn 1.00000000 0.00000000 -0.00000000
vn 1.00000000 0.00000000 -0.00000000
vn -1.00000000 0.00000000 -0.00000000
vn -1.00000000 0.00000000 -0.00000000
vn -1.00000000 0.00000000 -0.00000000
vn -1.00000000 0.00000000 -0.00000000
vn 0.00000000 0.00000000 -1.00000000
vn 0.00000000 0.00000000 -1.00000000
vn 0.00000000 0.00000000 -1.00000000
vn 0.00000000 0.00000000 -1.00000000
vn 0.00000000 0.00000000 1.00000000
vn 0.00000000 0.00000000 1.00000000
vn 0.00000000 0.00000000 1.00000000
vn 0.00000000 0.00000000 1.00000000
vn 0.08715574 0.99619472 -0.00000000
vn 0.08715574 0.99619472 -0.00000000
vn 0.08715574 0.99619472 -0.00000000
vn 0.08715574 0.99619472 -0.00000000
vn -0.08715574 -0.99619472 -0.00000000
vn -0.08715574 -0.99619472 -0.00000000
vn -0.08715574 -0.99619472 -0.00000000
vn -0.08715574 -0.99619472 -0.00000000
vn 0.99619472 -0.08715574 -0.00000000
vn 0.99619472 -0.08715574 -0.00000000
vn 0.99619472 -0.08715574 -0.00000000
vn 0.99619472 -0.08715574 -0.00000000
vn -0.99619472 0.08715574 -0.00000000
vn -0.99619472 0.08715574 -0.00000000
vn -0.99619472 0.08715574 -0.00000000
vn -0.99619472 0.08715574 -0.00000000
vn 0.00000000 0.00000000 -1.00000000
vn 0.00000000 0.00000000 -1.00000000
vn 0.00000000 0.00000000 -1.00000000
vn 0.00000000 0.00000000 -1.00000000
vn 0.00000000 0.00000000 1.00000000
vn 0.00000000 0.00000000 1.00000000
vn 0.00000000 0.00000000 1.00000000
vn 0.00000000 0.00000000 1.00000000
vn -0.46174863 0.88701087 -0.00000000
vn -0.46174863 0.88701087 -0.00000000
vn -0.46174863 0.88701087 -0.00000000
vn -0.46174863 0.88701087 -0.00000000
vn 0.46174863 -0.88701087 -0.00000000
vn 0.46174863 -0.88701087 -0.00000000
vn 0.46174863 -0.88701087 -0.00000000
vn 0.46174863 -0.88701087 -0.00000000
vn 0.88701087 0.46174863 -0.00000000
vn 0.88701087 0.46174863 -0.00000000
vn 0.88701087 0.46174863 -0.00000000
vn 0.88701087 0.46174863 -0.00000000
vn -0.88701087 -0.46174863 -0.00000000
vn -0.88701087 -0.46174863 -0.00000000
vn -0.88701087 -0.46174863 -0.00000000
vn -0.88701087 -0.46174863 -0.00000000
vn 0.00000000 0.00000000 -1.00000000
vn 0.00000000 0.00000000 -1.00000000
vn 0.00000000 0.00000000 -1.00000000
vn 0.00000000 0.00000000 -1.00000000
vn 0.00000000 0.00000000 1.00000000
vn 0.00000000 0.00000000 1.00000000
vn 0.00000000 0.00000000 1.00000000
vn 0.00000000 0.00000000 1.00000000
vn -0.79335338 0.60876143 -0.00000000
vn -0.79335338 0.60876143 -0.00000000
vn -0.79335338 0.60876143 -0.00000000
vn -0.79335338 0.60876143 -0.00000000
vn 0.79335338 -0.60876143 -0.00000000
vn 0.79335338 -0.60876143 -0.00000000
vn 0.79335338 -0.60876143 -0.00000000
vn 0.79335338 -0.60876143 -0.00000000
vn 0.60876143 0.79335338 -0.00000000
vn 0.60876143 0.79335338 -0.00000000
vn 0.60876143 0.79335338 -0.00000000
vn 0.60876143 0.79335338 -0.00000000
vn -0.60876143 -0.79335338 -0.00000000
vn -0.60876143 -0.79335338 -0.00000000
vn -0.60876143 -0.79335338 -0.00000000
vn -0.60876143 -0.79335338 -0.00000000
vn 0.00000000 0.00000000 -1.00000000
vn 0.00000000 0.00000000 -1.00000000
vn 0.00000000 0.00000000 -1.00000000
vn 0.00000000 0.00000000 -1.00000000
vn 0.00000000 0.00000000 1.00000000
vn 0.00000000 0.00000000 1.00000000
vn 0.00000000 0.00000000 1.00000000
vn 0.00000000 0.00000000 1.00000000
vn -0.25881907 0.96592587 -0.00000000
vn -0.25881907 0.96592587 -0.00000000
vn -0.25881907 0.96592587 -0.00000000
vn -0.25881907 0.96592587 -0.00000000
vn 0.25881907 -0.96592587 -0.00000000
vn 0.25881907 -0.96592587 -0.00000000
vn 0.25881907 -0.96592587 -0.00000000
vn 0.25881907 -0.96592587 -0.00000000
vn 0.96592587 0.25881907 -0.00000000
vn 0.96592587 0.25881907 -0.00000000
vn 0.96592587 0.25881907 -0.00000000
vn 0.96592587 0.25881907 -0.00000000
vn -0.96592587 -0.25881907 -0.00000000
vn -0.96592587 -0.25881907 -0.00000000
vn -0.96592587 -0.25881907 -0.00000000
vn -0.96592587 -0.25881907 -0.00000000
vn 0.00000000 0.00000000 -1.00000000
vn 0.00000000 0.00000000 -1.00000000
vn 0.00000000 0.00000000 -1.00000000
vn 0.00000000 0.00000000 -1.00000000
vn 0.00000000 0.00000000 1.00000000
vn 0.00000000 0.00000000 1.00000000
vn 0.00000000 0.00000000 1.00000000
vn 0.00000000 0.00000000 1.00000000
vn -0.34202015 0.93969268 -0.00000000
vn -0.34202015 0.93969268 -0.00000000
vn -0.34202015 0.93969268 -0.00000000
vn -0.34202015 0.93969268 -0.00000000
vn 0.34202015 -0.93969268 -0.00000000
vn 0.34202015 -0.93969268 -0.00000000
vn 0.34202015 -0.93969268 -0.00000000
vn 0.34202015 -0.93969268 -0.00000000
vn 0.93969268 0.34202015 -0.00000000
vn 0.93969268 0.34202015 -0.00000000
vn 0.93969268 0.34202015 -0.00000000
vn 0.93969268 0.34202015 -0.00000000
vn -0.93969268 -0.34202015 -0.00000000
vn -0.93969268 -0.34202015 -0.00000000
vn -0.93969268 -0.34202015 -0.00000000
vn -0.93969268 -0.34202015 -0.00000000
g doe_torso
f 1/1/1 3/3/3 2/2/2
f 3/3/3 4/4/4 2/2/2
f 5/5/5 7/7/7 6/6/6
f 7/7/7 8/8/8 6/6/6
f 9/9/9 11/11/11 10/10/10
f 11/11/11 12/12/12 10/10/10
f 13/13/13 15/15/15 14/14/14
f 15/15/15 16/16/16 14/14/14
f 17/17/17 19/19/19 18/18/18
f 19/19/19 20/20/20 18/18/18
f 21/21/21 23/23/23 22/22/22
f 23/23/23 24/24/24 22/22/22
f 25/25/25 27/27/27 26/26/26
f 27/27/27 28/28/28 26/26/26
f 29/29/29 31/31/31 30/30/30
f 31/31/31 32/32/32 30/30/30
f 33/33/33 35/35/35 34/34/34
f 35/35/35 36/36/36 34/34/34
f 37/37/37 39/39/39 38/38/38
f 39/39/39 40/40/40 38/38/38
f 41/41/41 43/43/43 42/42/42
f 43/43/43 44/44/44 42/42/42
f 45/45/45 47/47/47 46/46/46
f 47/47/47 48/48/48 46/46/46
f 49/49/49 51/51/51 50/50/50
f 51/51/51 52/52/52 50/50/50
f 53/53/53 55/55/55 54/54/54
f 55/55/55 56/56/56 54/54/54
f 57/57/57 59/59/59 58/58/58
f 59/59/59 60/60/60 58/58/58
f 61/61/61 63/63/63 62/62/62
f 63/63/63 64/64/64 62/62/62
f 65/65/65 67/67/67 66/66/66
f 67/67/67 68/68/68 66/66/66
f 69/69/69 71/71/71 70/70/70
f 71/71/71 72/72/72 70/70/70
f 73/73/73 75/75/75 74/74/74
f 75/75/75 76/76/76 74/74/74
f 77/77/77 79/79/79 78/78/78
f 79/79/79 80/80/80 78/78/78
f 81/81/81 83/83/83 82/82/82
f 83/83/83 84/84/84 82/82/82
f 85/85/85 87/87/87 86/86/86
f 87/87/87 88/88/88 86/86/86
f 89/89/89 91/91/91 90/90/90
f 91/91/91 92/92/92 90/90/90
f 93/93/93 95/95/95 94/94/94
f 95/95/95 96/96/96 94/94/94
f 97/97/97 99/99/99 98/98/98
f 99/99/99 100/100/100 98/98/98
f 101/101/101 103/103/103 102/102/102
f 103/103/103 104/104/104 102/102/102
f 105/105/105 107/107/107 106/106/106
f 107/107/107 108/108/108 106/106/106
f 109/109/109 111/111/111 110/110/110
f 111/111/111 112/112/112 110/110/110
f 113/113/113 115/115/115 114/114/114
f 115/115/115 116/116/116 114/114/114
f 117/117/117 119/119/119 118/118/118
f 119/119/119 120/120/120 118/118/118
f 121/121/121 123/123/123 122/122/122
f 123/123/123 124/124/124 122/122/122
f 125/125/125 127/127/127 126/126/126
f 127/127/127 128/128/128 126/126/126
f 129/129/129 131/131/131 130/130/130
f 131/131/131 132/132/132 130/130/130
f 133/133/133 135/135/135 134/134/134
f 135/135/135 136/136/136 134/134/134
f 137/137/137 139/139/139 138/138/138
f 139/139/139 140/140/140 138/138/138
f 141/141/141 143/143/143 142/142/142
f 143/143/143 144/144/144 142/142/142
