# Wavefront OBJ file
# Exported by Misfit Model 3D 1.3.8
# Mon Jul 27 19:28:32 2026

# 12 Vertices
v -0.1016 0.301366 0.0508
v -0.1016 0.301366 -0.0508
v -0.1016 0.606166 0.0508
v -0.1016 0.606166 -0.0508
v -0.2032 0.301366 0.0508
v -0.1016 0.301366 0.0508
v -0.2032 0.301366 -0.0508
v -0.1016 0.301366 -0.0508
v -0.2032 0.606166 0.0508
v -0.1016 0.606166 0.0508
v -0.2032 0.606166 -0.0508
v -0.1016 0.606166 -0.0508

# 42 Texture Coordinates
vt 0.25 0.5
vt 0.3125 0.5
vt 0.3125 0.6875
vt 0.25 0.5
vt 0.3125 0.6875
vt 0.25 0.6875
vt 0.75 0.6875
vt 0.75 0.75
vt 0.8125 0.75
vt 0.75 0.6875
vt 0.8125 0.75
vt 0.8125 0.6875
vt 0.6875 0.6875
vt 0.75 0.6875
vt 0.75 0.75
vt 0.6875 0.6875
vt 0.75 0.75
vt 0.6875 0.75
vt 0.6875 0.5
vt 0.75 0.5
vt 0.75 0.6875
vt 0.6875 0.5
vt 0.75 0.6875
vt 0.6875 0.6875
vt 0.75 0.5
vt 0.8125 0.5
vt 0.8125 0.6875
vt 0.75 0.5
vt 0.8125 0.6875
vt 0.75 0.6875
vt 0.8125 0.5
vt 0.875 0.5
vt 0.875 0.6875
vt 0.8125 0.5
vt 0.875 0.6875
vt 0.8125 0.6875
vt 0.625 0.5
vt 0.6875 0.5
vt 0.6875 0.6875
vt 0.625 0.5
vt 0.6875 0.6875
vt 0.625 0.6875

# 42 Vertex Normals
vn -1.0 0.0 0.0
vn -1.0 0.0 0.0
vn -1.0 0.0 0.0
vn -1.0 0.0 0.0
vn -1.0 0.0 0.0
vn -1.0 0.0 -0.0
vn 0.0 -1.0 0.0
vn 0.0 -1.0 0.0
vn 0.0 -1.0 0.0
vn 0.0 -1.0 0.0
vn 0.0 -1.0 0.0
vn 0.0 -1.0 0.0
vn 0.0 1.0 0.0
vn 0.0 1.0 0.0
vn 0.0 1.0 0.0
vn 0.0 1.0 0.0
vn 0.0 1.0 0.0
vn -0.0 1.0 0.0
vn 0.0 -0.0 1.0
vn 0.0 -0.0 1.0
vn 0.0 -0.0 1.0
vn 0.0 -0.0 1.0
vn 0.0 -0.0 1.0
vn 0.0 -0.0 1.0
vn 1.0 0.0 0.0
vn 1.0 0.0 0.0
vn 1.0 0.0 0.0
vn 1.0 0.0 0.0
vn 1.0 0.0 0.0
vn 1.0 0.0 -0.0
vn 0.0 -0.0 -1.0
vn 0.0 -0.0 -1.0
vn 0.0 -0.0 -1.0
vn 0.0 -0.0 -1.0
vn 0.0 -0.0 -1.0
vn 0.0 -0.0 -1.0
vn -1.0 0.0 0.0
vn -1.0 0.0 0.0
vn -1.0 0.0 0.0
vn -1.0 0.0 0.0
vn -1.0 0.0 0.0
vn -1.0 0.0 -0.0

# ungrouped, 14 grouped triangles

o ungrouped
g ungrouped

f 2/1/1 1/2/2 3/3/3
f 2/4/4 3/5/5 4/6/6
f 5/7/7 7/8/8 8/9/9
f 5/10/10 8/11/11 6/12/12
f 9/13/13 10/14/14 12/15/15
f 9/16/16 12/17/17 11/18/18
f 5/19/19 6/20/20 10/21/21
f 5/22/22 10/23/23 9/24/24
f 6/25/25 8/26/26 12/27/27
f 6/28/28 12/29/29 10/30/30
f 8/31/31 7/32/32 11/33/33
f 8/34/34 11/35/35 12/36/36
f 7/37/37 5/38/38 9/39/39
f 7/40/40 9/41/41 11/42/42
