# Wavefront OBJ file
# Exported by Misfit Model 3D 1.3.8
# Sun Aug 16 22:02:05 2026

# 24 Vertices
v -0.1016 -0.0254 0.381
v 0.1016 -0.0254 0.381
v -0.1016 -0.0254 0.2286
v 0.1016 -0.0254 0.2286
v -0.1016 0.1778 0.381
v 0.1016 0.1778 0.381
v -0.1016 0.1778 0.2286
v 0.1016 0.1778 0.2286
v -0.127 0.127 0.3302
v -0.1016 0.127 0.3302
v -0.127 0.127 0.3048
v -0.1016 0.127 0.3048
v -0.127 0.2032 0.3302
v -0.1016 0.2032 0.3302
v -0.127 0.2032 0.3048
v -0.1016 0.2032 0.3048
v 0.1016 0.127 0.3302
v 0.127 0.127 0.3302
v 0.1016 0.127 0.3048
v 0.127 0.127 0.3048
v 0.1016 0.2032 0.3302
v 0.127 0.2032 0.3302
v 0.1016 0.2032 0.3048
v 0.127 0.2032 0.3048

# 108 Texture Coordinates
vt 0.218733 0.906301
vt 0.218733 1.0
vt 0.343746 1.0
vt 0.218733 0.906301
vt 0.343746 1.0
vt 0.343734 0.906301
vt 0.093742 0.905961
vt 0.218733 0.905961
vt 0.218733 1.0
vt 0.093742 0.905961
vt 0.218733 1.0
vt 0.093742 1.0
vt 0.093742 0.781365
vt 0.218733 0.781365
vt 0.218733 0.905961
vt 0.093742 0.781365
vt 0.218733 0.905961
vt 0.093742 0.905961
vt 0.218733 0.781365
vt 0.312536 0.781365
vt 0.312536 0.905961
vt 0.218733 0.781365
vt 0.312536 0.905961
vt 0.218733 0.905961
vt 0.312536 0.781365
vt 0.437389 0.781365
vt 0.437389 0.905961
vt 0.312536 0.781365
vt 0.437389 0.905961
vt 0.312536 0.905961
vt 0.0 0.781365
vt 0.093742 0.781365
vt 0.093742 0.905961
vt 0.0 0.781365
vt 0.093742 0.905961
vt 0.0 0.905961
vt 0.375 0.984368
vt 0.375 1.0
vt 0.3875 1.0
vt 0.375 0.984368
vt 0.3875 1.0
vt 0.3875 0.984368
vt 0.3625 0.984368
vt 0.375 0.984368
vt 0.375 1.0
vt 0.3625 0.984368
vt 0.375 1.0
vt 0.3625 1.0
vt 0.359223 0.9375
vt 0.374884 0.9375
vt 0.374884 0.984368
vt 0.359223 0.9375
vt 0.374884 0.984368
vt 0.359223 0.984368
vt 0.374884 0.9375
vt 0.390546 0.9375
vt 0.390546 0.984368
vt 0.374884 0.9375
vt 0.390546 0.984368
vt 0.374884 0.984368
vt 0.390546 0.9375
vt 0.406208 0.9375
vt 0.406208 0.984368
vt 0.390546 0.9375
vt 0.406208 0.984368
vt 0.390546 0.984368
vt 0.343561 0.9375
vt 0.359223 0.9375
vt 0.359223 0.984368
vt 0.343561 0.9375
vt 0.359223 0.984368
vt 0.343561 0.984368
vt 0.375 0.984368
vt 0.375 1.0
vt 0.3875 1.0
vt 0.375 0.984368
vt 0.3875 1.0
vt 0.3875 0.984368
vt 0.3625 0.984368
vt 0.375 0.984368
vt 0.375 1.0
vt 0.3625 0.984368
vt 0.375 1.0
vt 0.3625 1.0
vt 0.359223 0.9375
vt 0.374884 0.9375
vt 0.374884 0.984368
vt 0.359223 0.9375
vt 0.374884 0.984368
vt 0.359223 0.984368
vt 0.374884 0.9375
vt 0.390546 0.9375
vt 0.390546 0.984368
vt 0.374884 0.9375
vt 0.390546 0.984368
vt 0.374884 0.984368
vt 0.390546 0.9375
vt 0.406208 0.9375
vt 0.406208 0.984368
vt 0.390546 0.9375
vt 0.406208 0.984368
vt 0.390546 0.984368
vt 0.343561 0.9375
vt 0.359223 0.9375
vt 0.359223 0.984368
vt 0.343561 0.9375
vt 0.359223 0.984368
vt 0.343561 0.984368

# 108 Vertex Normals
vn -0.0 -1.0 0.0
vn -0.0 -1.0 0.0
vn -0.0 -1.0 0.0
vn -0.0 -1.0 0.0
vn -0.0 -1.0 0.0
vn -0.0 -1.0 0.0
vn 0.0 1.0 0.0
vn -0.0 1.0 0.0
vn 0.0 1.0 0.0
vn 0.0 1.0 0.0
vn 0.0 1.0 0.0
vn 0.0 1.0 0.0
vn 0.0 -0.0 1.0
vn 0.0 -0.0 1.0
vn 0.0 -0.0 1.0
vn 0.0 -0.0 1.0
vn 0.0 -0.0 1.0
vn 0.0 -0.0 1.0
vn 1.0 0.0 0.0
vn 1.0 0.0 0.0
vn 1.0 0.0 0.0
vn 1.0 0.0 0.0
vn 1.0 0.0 0.0
vn 1.0 0.0 -0.0
vn 0.0 -0.0 -1.0
vn 0.0 -0.0 -1.0
vn 0.0 -0.0 -1.0
vn 0.0 -0.0 -1.0
vn 0.0 -0.0 -1.0
vn 0.0 -0.0 -1.0
vn -1.0 0.0 0.0
vn -1.0 0.0 -0.0
vn -1.0 0.0 0.0
vn -1.0 0.0 0.0
vn -1.0 0.0 0.0
vn -1.0 0.0 0.0
vn -0.0 -1.0 0.0
vn -0.0 -1.0 0.0
vn -0.0 -1.0 0.0
vn -0.0 -1.0 0.0
vn -0.0 -1.0 0.0
vn -0.0 -1.0 0.0
vn 0.0 1.0 0.0
vn 0.0 1.0 0.0
vn 0.0 1.0 0.0
vn 0.0 1.0 0.0
vn 0.0 1.0 0.0
vn -0.0 1.0 0.0
vn 0.0 -0.0 1.0
vn 0.0 -0.0 1.0
vn 0.0 -0.0 1.0
vn 0.0 -0.0 1.0
vn 0.0 -0.0 1.0
vn 0.0 -0.0 1.0
vn 1.0 0.0 0.0
vn 1.0 0.0 0.0
vn 1.0 0.0 0.0
vn 1.0 0.0 0.0
vn 1.0 0.0 0.0
vn 1.0 0.0 -0.0
vn 0.0 0.0 -1.0
vn 0.0 0.0 -1.0
vn 0.0 0.0 -1.0
vn 0.0 0.0 -1.0
vn 0.0 0.0 -1.0
vn 0.0 0.0 -1.0
vn -1.0 0.0 0.0
vn -1.0 0.0 0.0
vn -1.0 0.0 0.0
vn -1.0 0.0 0.0
vn -1.0 0.0 0.0
vn -1.0 0.0 -0.0
vn -0.0 -1.0 0.0
vn -0.0 -1.0 0.0
vn -0.0 -1.0 0.0
vn -0.0 -1.0 0.0
vn -0.0 -1.0 0.0
vn -0.0 -1.0 0.0
vn 0.0 1.0 0.0
vn 0.0 1.0 0.0
vn 0.0 1.0 0.0
vn 0.0 1.0 0.0
vn 0.0 1.0 0.0
vn -0.0 1.0 0.0
vn 0.0 -0.0 1.0
vn 0.0 -0.0 1.0
vn 0.0 -0.0 1.0
vn 0.0 -0.0 1.0
vn 0.0 -0.0 1.0
vn 0.0 -0.0 1.0
vn 1.0 0.0 0.0
vn 1.0 0.0 -0.0
vn 1.0 0.0 0.0
vn 1.0 0.0 0.0
vn 1.0 0.0 0.0
vn 1.0 0.0 0.0
vn 0.0 0.0 -1.0
vn 0.0 0.0 -1.0
vn 0.0 0.0 -1.0
vn 0.0 0.0 -1.0
vn 0.0 0.0 -1.0
vn 0.0 0.0 -1.0
vn -1.0 0.0 0.0
vn -1.0 0.0 -0.0
vn -1.0 0.0 0.0
vn -1.0 0.0 0.0
vn -1.0 0.0 0.0
vn -1.0 0.0 0.0

# Cow_02_-_Default, 36 grouped triangles

o Cow_02_-_Default
g Cow_02_-_Default

f 1/1/1 3/2/2 4/3/3
f 1/4/4 4/5/5 2/6/6
f 5/7/7 6/8/8 8/9/9
f 5/10/10 8/11/11 7/12/12
f 1/13/13 2/14/14 6/15/15
f 1/16/16 6/17/17 5/18/18
f 2/19/19 4/20/20 8/21/21
f 2/22/22 8/23/23 6/24/24
f 4/25/25 3/26/26 7/27/27
f 4/28/28 7/29/29 8/30/30
f 3/31/31 1/32/32 5/33/33
f 3/34/34 5/35/35 7/36/36
f 9/37/37 11/38/38 12/39/39
f 9/40/40 12/41/41 10/42/42
f 13/43/43 14/44/44 16/45/45
f 13/46/46 16/47/47 15/48/48
f 9/49/49 10/50/50 14/51/51
f 9/52/52 14/53/53 13/54/54
f 10/55/55 12/56/56 16/57/57
f 10/58/58 16/59/59 14/60/60
f 12/61/61 11/62/62 15/63/63
f 12/64/64 15/65/65 16/66/66
f 11/67/67 9/68/68 13/69/69
f 11/70/70 13/71/71 15/72/72
f 17/73/73 19/74/74 20/75/75
f 17/76/76 20/77/77 18/78/78
f 21/79/79 22/80/80 24/81/81
f 21/82/82 24/83/83 23/84/84
f 17/85/85 18/86/86 22/87/87
f 17/88/88 22/89/89 21/90/90
f 18/91/91 20/92/92 24/93/93
f 18/94/94 24/95/95 22/96/96
f 20/97/97 19/98/98 23/99/99
f 20/100/100 23/101/101 24/102/102
f 19/103/103 17/104/104 21/105/105
f 19/106/106 21/107/107 23/108/108
